<?xml version="1.0" encoding="UTF-8" standalone="no"?>
<svg
   xmlns:dc="http://purl.org/dc/elements/1.1/"
   xmlns:cc="http://creativecommons.org/ns#"
   xmlns:rdf="http://www.w3.org/1999/02/22-rdf-syntax-ns#"
   xmlns:svg="http://www.w3.org/2000/svg"
   xmlns="http://www.w3.org/2000/svg"
   xmlns:sodipodi="http://sodipodi.sourceforge.net/DTD/sodipodi-0.dtd"
   xmlns:inkscape="http://www.inkscape.org/namespaces/inkscape"
   id="Layer_1"
   data-name="Layer 1"
   viewBox="0 0 770.5 258.84"
   version="1.1"
   sodipodi:docname="logo_desenho.svg"
   inkscape:version="0.92.1 r15371">
  <metadata
     id="metadata3713">
    <rdf:RDF>
      <cc:Work
         rdf:about="">
        <dc:format>image/svg+xml</dc:format>
        <dc:type
           rdf:resource="http://purl.org/dc/dcmitype/StillImage" />
      </cc:Work>
    </rdf:RDF>
  </metadata>
  <sodipodi:namedview
     pagecolor="#ffffff"
     bordercolor="#666666"
     borderopacity="1"
     objecttolerance="10"
     gridtolerance="10"
     guidetolerance="10"
     inkscape:pageopacity="0"
     inkscape:pageshadow="2"
     inkscape:window-width="1600"
     inkscape:window-height="847"
     id="namedview3711"
     showgrid="false"
     inkscape:zoom="1.8754056"
     inkscape:cx="385.25"
     inkscape:cy="129.42"
     inkscape:window-x="-8"
     inkscape:window-y="-8"
     inkscape:window-maximized="1"
     inkscape:current-layer="Layer_1"
     inkscape:snap-page="false"
     inkscape:snap-to-guides="true"
     inkscape:snap-grids="true" />
  <defs
     id="defs3682">
    <style
       id="style3680">.cls-1{fill:none;stroke:#000;stroke-miterlimit:10;stroke-width:5px;}.cls-2{fill:#231f20;}</style>
  </defs>
  <title
     id="title3684">logo aif</title>
  <path
     class="cls-1"
     d="m 717.10304,203.89061 a 109.0199,52.476986 0 1 1 -109.01987,-52.477 109.0199,52.476986 0 0 1 109.01987,52.477 z M 701.10469,4.5910929 A 60.447499,29.096548 0 1 0 766.80935,30.918896 60.447499,29.096548 0 0 0 701.10469,4.5910929 Z M 348.56289,20.101976 A 89.578589,43.118852 0 1 0 445.9345,59.122301 89.578589,43.118852 0 0 0 348.58358,20.092042 Z m -38.73835,58.79843 A 47.417888,22.824712 0 1 0 361.36583,99.59135 47.417888,22.824712 0 0 0 309.82454,78.900406 Z M 195.40308,173.77191 a 41.645284,20.046043 0 1 0 45.35642,18.14051 41.645284,20.046043 0 0 0 -45.35642,-18.14051 z M 64.756579,71.149932 C 26.94595,72.817124 -0.8038153,89.40967 2.7834512,108.2253 6.370718,127.04073 39.893119,140.97369 77.703721,139.27661 115.51429,137.57974 143.26404,121.01699 139.67681,102.20141 136.0897,83.385964 102.56717,69.482737 64.756579,71.149932 Z M 442.61521,58.179539 488.89935,55.142865 m 82.25962,-5.656558 -46.28391,3.036677 m 78.34269,-5.656549 46.28397,-3.036686 M 486.19868,133.79893 538.2551,159.84879 M 465.74706,123.24984 412.88642,97.199811 m -150.0055,7.939159 h -56.15921 m 85.70262,15.52085 -29.04857,23.1421 m -10.12274,8.93152 -29.04871,23.14215 M 185.4866,105.15866 h -39.04763"
     id="path3686"
     inkscape:export-xdpi="96"
     inkscape:export-ydpi="96"
     style="fill:none;stroke:#000000;stroke-width:7.15180826px;stroke-miterlimit:10;image-rendering:auto"
     inkscape:connector-curvature="0" />
</svg>
