<svg id="Layer_1" data-name="Layer 1" xmlns="http://www.w3.org/2000/svg" viewBox="0 0 770.5 258.84"><defs><style>.cls-1{fill:none;stroke:#000;stroke-miterlimit:10;stroke-width:5px;}.cls-2{fill:#231f20;}</style></defs><title>logo aif</title><path class="cls-1" d="M386.63,207.63a52.88,52.88,0,1,1-52.88-52.88A52.88,52.88,0,0,1,386.63,207.63ZM378.87,6.8a29.32,29.32,0,1,0,31.87,26.53A29.32,29.32,0,0,0,378.87,6.8Zm-171,15.63a43.45,43.45,0,1,0,47.23,39.32A43.45,43.45,0,0,0,207.88,22.42ZM189.08,81.68a23,23,0,1,0,25,20.85A23,23,0,0,0,189.08,81.68Zm-55.5,95.6a20.2,20.2,0,1,0,22,18.28A20.2,20.2,0,0,0,133.58,177.28ZM70.21,73.87c-18.34,1.68-31.8,18.4-30.06,37.36s18,33,36.34,31.29,31.8-18.4,30.06-37.36S88.55,72.19,70.21,73.87ZM253.49,60.8l22.45-3.06m39.9-5.7L293.39,55.1m38-5.7,22.45-3.06M274.63,137l25.25,26.25m-35.17-36.88-25.64-26.25m-72.76,8H139.07m41.57,15.64-14.09,23.32m-4.91,9-14.09,23.32m-18.78-71.26H109.83" transform="translate(-37.5 -4.17)"/><path class="cls-2" d="M440.39,121.06l-8.54,25.86h-11L448.81,64.7h12.81l28.06,82.23H478.33l-8.78-25.86Zm27-8.3L459.3,89.1c-1.83-5.37-3.05-10.25-4.27-15h-.24C453.57,79,452.22,84,450.64,89l-8.05,23.79Z" transform="translate(-37.5 -4.17)"/><path class="cls-2" d="M512.37,64.7v82.23H501.76V64.7Z" transform="translate(-37.5 -4.17)"/><path class="cls-2" d="M606,73.73h-25v-9h60.88v9H616.69v73.2H606Z" transform="translate(-37.5 -4.17)"/><path class="cls-2" d="M757.74,60.31h10.74V97.15h.24a19.92,19.92,0,0,1,7.69-7.56,22.08,22.08,0,0,1,11-3c7.93,0,20.62,4.88,20.62,25.25v35.14H797.26V113c0-9.52-3.54-17.57-13.66-17.57a15.43,15.43,0,0,0-14.4,10.74,13,13,0,0,0-.73,5.12v35.62H757.74Z" transform="translate(-37.5 -4.17)"/><path class="cls-2" d="M730.32,95.21h.2c5.86,0,9.88,1.34,12.45,2.81l2.44-8.3a35.89,35.89,0,0,0-14.89-3h-.2Z" transform="translate(-37.5 -4.17)"/><path class="cls-2" d="M722.11,138.11c-7.46-3-12.45-10.3-12.45-20.59,0-9.45,4.32-17.52,12.45-20.78V87.61c-14.39,3.28-23.3,15-23.3,30.4,0,15.9,9,27.15,23.3,29.62Z" transform="translate(-37.5 -4.17)"/><path class="cls-2" d="M730.32,139.6v8.48a38.23,38.23,0,0,0,14.84-3.35l-1.83-8.05A30.55,30.55,0,0,1,730.32,139.6Z" transform="translate(-37.5 -4.17)"/><path class="cls-2" d="M689.77,114.35c0-10.37-4.71-26.28-21.94-27.68v7.87c9.29,1.77,11.68,11,11.57,17.12H648c.71-6.21,4.16-14.17,11.57-16.65v-7.9c-13.75,2.78-21.94,15.54-21.94,31.26,0,17.81,10.86,29.77,29,29.77,9.39,0,15.86-2,19.64-3.66l-1.83-7.69c-4,1.71-8.66,3-16.35,3-10.74,0-20-6-20.25-20.5h41.48A40.34,40.34,0,0,0,689.77,114.35Z" transform="translate(-37.5 -4.17)"/><rect class="cls-2" x="511.6" y="96.76" width="23.55" height="8.78"/><polygon class="cls-2" points="504.04 96.76 504.04 96.76 504.04 69.43 504.04 69.43 504.04 60.52 493.42 60.52 493.42 142.75 504.04 142.75 504.04 105.54 504.04 105.54 504.04 96.76"/><rect class="cls-2" x="511.6" y="60.52" width="26.11" height="8.91"/></svg>