<?xml version="1.0" standalone="no"?>
<!DOCTYPE svg PUBLIC "-//W3C//DTD SVG 20010904//EN"
 "http://www.w3.org/TR/2001/REC-SVG-20010904/DTD/svg10.dtd">
<svg version="1.0" xmlns="http://www.w3.org/2000/svg"
 width="2988.000000pt" height="5312.000000pt" viewBox="0 0 2988.000000 5312.000000"
 preserveAspectRatio="xMidYMid meet">

<g transform="translate(0.000000,5312.000000) scale(0.100000,-0.100000)"
fill="#000000" stroke="none">
<path d="M0 26560 l0 -26560 14940 0 14940 0 0 26560 0 26560 -14940 0 -14940
0 0 -26560z m15300 9640 l0 -7020 -7015 0 -7015 0 0 7020 0 7020 7015 0 7015
0 0 -7020z"/>
<path d="M7737 42563 c-1 0 -101 -4 -222 -8 -121 -3 -249 -10 -285 -16 -137
-19 -297 -37 -347 -38 -28 0 -73 -6 -100 -12 -26 -6 -100 -17 -163 -25 -63 -7
-135 -18 -160 -23 -25 -5 -67 -12 -95 -15 -27 -3 -68 -11 -90 -17 -55 -14
-112 -26 -164 -34 -25 -4 -63 -13 -85 -20 -23 -8 -54 -16 -70 -19 -16 -3 -84
-21 -150 -39 -67 -19 -143 -39 -171 -46 -54 -12 -142 -39 -335 -101 -69 -22
-141 -44 -160 -49 -19 -4 -53 -17 -75 -28 -22 -11 -62 -26 -90 -33 -27 -7 -54
-16 -60 -21 -5 -4 -38 -17 -72 -28 -34 -12 -87 -32 -117 -46 -30 -14 -60 -25
-66 -25 -6 0 -27 -10 -48 -23 -20 -12 -68 -33 -107 -46 -38 -13 -95 -37 -125
-52 -30 -16 -60 -29 -67 -29 -6 0 -44 -18 -83 -41 -40 -22 -90 -47 -112 -55
-22 -8 -72 -33 -112 -57 -39 -24 -95 -53 -125 -65 -29 -12 -79 -39 -110 -60
-31 -21 -71 -44 -88 -50 -18 -6 -65 -32 -104 -57 -40 -26 -96 -57 -126 -70
-29 -13 -86 -48 -126 -78 -99 -74 -154 -110 -207 -137 -25 -13 -57 -32 -71
-44 -14 -11 -36 -28 -49 -36 -12 -8 -28 -21 -36 -27 -7 -7 -17 -13 -22 -13 -6
0 -12 -3 -14 -8 -6 -13 -142 -109 -188 -132 -25 -13 -61 -38 -80 -57 -19 -18
-53 -46 -75 -61 -22 -14 -52 -39 -67 -54 -32 -32 -181 -148 -247 -193 -156
-105 -616 -525 -641 -585 -10 -25 -7 -38 34 -123 25 -52 55 -123 67 -158 12
-35 25 -66 30 -69 4 -3 17 -34 30 -70 12 -36 41 -104 65 -152 24 -48 44 -94
44 -102 0 -8 6 -27 14 -43 14 -29 96 -226 123 -298 9 -22 24 -56 34 -76 11
-20 19 -42 19 -49 0 -6 13 -41 30 -77 16 -35 30 -70 30 -78 0 -7 5 -15 10 -17
6 -2 24 -43 40 -92 17 -49 34 -94 38 -100 5 -6 19 -38 32 -71 13 -33 31 -71
41 -85 9 -14 17 -29 18 -35 7 -44 31 -105 86 -220 13 -27 33 -72 43 -100 18
-46 52 -124 87 -200 8 -16 23 -52 34 -80 10 -27 31 -77 46 -110 14 -33 32 -73
39 -90 30 -67 111 -227 117 -231 18 -11 40 13 77 84 22 42 56 104 76 137 20
33 44 76 54 95 17 35 49 86 65 105 8 9 62 99 148 245 42 71 346 527 376 565 4
6 44 57 88 115 43 58 82 107 85 110 3 3 21 25 40 50 19 24 41 51 48 60 7 8 29
36 50 61 102 126 108 133 212 249 36 40 74 83 85 95 11 13 43 50 72 82 50 58
367 375 480 483 58 54 168 150 257 225 27 22 55 46 63 54 8 8 54 45 101 83 48
38 94 74 102 81 9 6 46 35 84 62 37 28 95 70 129 95 71 53 268 186 365 247
164 103 507 295 652 364 131 63 156 74 163 71 4 -1 7 2 7 7 0 5 10 13 23 16
12 4 36 13 52 20 17 8 59 26 95 40 36 15 83 34 105 44 137 60 277 114 420 162
50 16 98 34 107 39 10 6 26 10 37 10 10 0 34 7 54 15 19 8 68 23 108 35 128
35 341 90 372 96 17 3 34 7 38 9 12 8 277 63 331 69 10 1 21 5 24 9 4 4 22 7
40 7 18 0 43 4 57 9 26 10 64 17 172 31 39 5 115 16 170 24 55 9 127 18 160
21 33 2 110 10 170 16 61 6 166 14 235 18 145 8 862 6 995 -3 50 -3 126 -8
170 -11 111 -7 187 -14 355 -32 80 -8 159 -17 175 -18 17 -1 37 -4 45 -7 8 -3
53 -11 100 -18 47 -6 135 -20 195 -30 61 -11 126 -21 145 -24 19 -3 78 -15
130 -27 52 -11 109 -23 125 -26 17 -2 66 -12 110 -23 44 -10 100 -21 125 -25
25 -3 65 -13 90 -20 25 -8 90 -26 145 -40 55 -13 138 -35 185 -49 47 -13 121
-33 165 -45 44 -12 89 -26 100 -31 23 -10 110 -34 110 -29 0 1 9 -3 21 -9 11
-6 33 -13 47 -16 14 -2 41 -11 59 -19 18 -8 74 -26 123 -42 78 -24 193 -66
260 -95 11 -5 58 -22 105 -38 74 -26 337 -127 395 -152 11 -5 49 -18 85 -30
36 -12 71 -26 78 -32 6 -6 12 -8 12 -5 0 4 21 -4 48 -18 73 -36 182 -85 190
-85 4 0 48 -20 97 -45 50 -25 94 -45 98 -45 11 0 107 -43 200 -91 43 -21 84
-39 92 -39 8 0 15 -4 15 -8 0 -7 63 -42 75 -42 3 0 5 6 5 13 0 16 -40 47 -95
74 -22 11 -67 35 -100 53 -33 18 -79 44 -102 57 -24 13 -64 35 -90 50 -27 14
-102 54 -168 88 -66 33 -151 79 -190 102 -38 22 -124 66 -190 98 -66 31 -131
64 -145 71 -27 16 -123 61 -155 74 -20 8 -78 35 -335 158 -80 38 -156 73 -168
77 -13 4 -49 19 -80 35 -32 15 -97 44 -147 65 -49 20 -112 47 -140 60 -27 12
-68 28 -90 35 -35 11 -85 31 -150 60 -11 5 -56 23 -100 40 -44 17 -93 37 -110
45 -16 7 -61 25 -100 40 -38 15 -83 33 -100 40 -16 7 -57 22 -90 33 -135 44
-313 105 -359 123 -27 10 -57 19 -67 19 -9 0 -19 4 -21 8 -1 4 -64 27 -138 51
-74 24 -146 48 -160 54 -14 6 -32 12 -40 14 -8 2 -19 5 -25 7 -5 1 -37 10 -70
20 -33 9 -98 27 -145 41 -190 54 -276 77 -300 80 -14 1 -47 9 -75 18 -27 8
-70 21 -95 27 -43 10 -182 46 -280 71 -25 6 -52 13 -60 14 -81 12 -176 33
-205 45 -11 5 -51 12 -90 16 -38 4 -72 8 -75 9 -3 1 -25 5 -50 9 -25 4 -58 11
-75 16 -16 5 -52 11 -80 15 -27 3 -111 14 -185 25 -74 10 -173 22 -220 25 -47
3 -114 11 -150 16 -36 6 -83 12 -105 14 -22 1 -83 8 -135 14 -52 7 -131 14
-175 16 -44 2 -134 7 -200 11 -99 6 -733 13 -738 7z"/>
<path d="M8020 40958 c-25 -4 -85 -12 -135 -18 -274 -35 -434 -85 -719 -226
-59 -30 -113 -54 -120 -54 -7 0 -86 -61 -176 -136 -166 -137 -326 -293 -424
-414 -88 -109 -223 -345 -274 -480 -74 -197 -68 -179 -116 -378 -24 -103 -48
-297 -49 -407 -1 -75 13 -277 19 -287 7 -11 12 -42 19 -111 8 -81 74 -312 121
-425 8 -18 14 -39 14 -47 0 -8 4 -15 8 -15 5 0 14 -18 21 -40 13 -44 72 -148
108 -193 13 -16 23 -32 23 -37 0 -8 33 -58 107 -164 12 -17 84 -94 160 -172
137 -140 287 -268 393 -336 30 -19 80 -51 110 -71 206 -131 560 -252 830 -282
71 -8 172 -15 230 -17 69 -1 315 11 340 17 8 2 35 7 60 10 69 10 116 20 220
48 86 23 125 38 296 111 104 44 363 197 462 272 52 39 155 128 196 170 73 74
161 176 159 184 -2 6 1 10 6 10 18 0 241 339 241 366 0 2 9 23 19 47 26 57 90
228 95 252 3 11 12 40 20 64 20 55 43 150 51 216 4 28 9 59 10 70 29 167 30
400 3 575 -8 52 -15 104 -16 115 -1 23 -44 199 -65 265 -30 95 -101 277 -122
310 -12 19 -37 65 -55 103 -19 37 -37 67 -42 67 -4 0 -8 4 -8 9 0 13 -84 143
-135 209 -39 52 -242 262 -281 292 -10 8 -53 43 -94 76 -41 34 -88 69 -105 78
-34 18 -51 29 -115 70 -63 41 -248 132 -317 157 -32 11 -67 24 -78 29 -100 43
-357 104 -490 116 -99 9 -353 10 -405 2z m1440 -816 c30 -17 65 -35 76 -41 12
-5 31 -22 43 -38 11 -15 26 -34 32 -41 21 -25 56 -118 62 -164 7 -51 -7 -144
-26 -180 -19 -36 -97 -138 -105 -138 -5 0 -37 -21 -72 -47 l-65 -48 -111 0
c-104 0 -113 2 -152 28 -23 15 -44 27 -47 27 -3 0 -11 4 -18 10 -7 5 -26 21
-43 34 -34 28 -102 132 -112 174 -4 15 -7 65 -7 112 0 73 4 91 25 125 41 66
94 133 110 139 15 5 26 12 80 48 44 29 92 37 185 34 78 -3 97 -7 145 -34z"/>
<path d="M2780 36517 c-3 -3 -26 -7 -51 -9 -25 -3 -68 -17 -94 -31 -26 -15
-56 -27 -66 -27 -11 0 -19 -4 -19 -9 0 -5 -8 -12 -19 -16 -45 -14 -119 -90
-149 -155 -15 -30 -32 -61 -39 -68 -7 -7 -16 -25 -20 -40 -12 -44 -7 -274 6
-317 6 -22 13 -46 14 -53 2 -7 9 -18 15 -24 7 -7 12 -17 12 -24 0 -6 11 -20
25 -30 14 -10 25 -24 25 -30 0 -6 19 -32 43 -57 55 -58 165 -111 252 -120 11
-1 23 -6 26 -10 8 -11 94 -13 144 -4 22 4 78 19 123 33 77 23 89 31 150 92 84
84 95 98 131 169 32 65 53 176 44 243 -6 52 -36 146 -66 208 -32 67 -156 202
-186 202 -6 0 -11 4 -11 9 0 8 -23 17 -65 26 -5 2 -30 8 -55 15 -25 7 -56 14
-70 15 -14 1 -41 5 -60 9 -19 4 -37 5 -40 3z m123 -92 c10 -4 20 -5 24 -2 7 8
122 -50 151 -76 27 -25 29 -63 4 -71 -9 -3 -32 -2 -50 3 -17 5 -32 7 -32 4 0
-3 -6 0 -13 6 -8 6 -17 8 -20 4 -4 -3 -7 -1 -7 5 0 6 -14 19 -31 27 -24 13
-34 14 -45 4 -9 -8 -18 -8 -26 -2 -47 37 -160 -32 -261 -159 -34 -42 -38 -55
-43 -120 -11 -149 42 -275 137 -323 26 -13 50 -21 53 -18 3 4 6 1 6 -5 0 -12
81 -34 125 -32 17 0 59 9 95 19 93 28 134 35 126 23 -3 -6 -1 -12 5 -14 21 -7
-9 -48 -34 -48 -12 0 -40 -14 -61 -32 -27 -22 -55 -34 -90 -40 -129 -19 -151
-20 -196 -4 -25 9 -53 16 -63 16 -18 0 -67 29 -95 57 -7 7 -17 13 -21 13 -15
0 -80 70 -116 124 -39 60 -52 95 -61 171 -4 28 -7 52 -7 55 0 3 3 25 7 50 24
145 155 289 321 353 57 22 175 28 218 12z m85 -165 c41 -13 63 -35 68 -70 2
-8 8 -16 13 -18 6 -2 11 -10 11 -17 0 -17 33 -75 43 -75 4 0 8 6 8 13 1 11 7
102 9 149 1 10 10 23 21 29 17 9 21 7 26 -10 3 -12 9 -21 13 -21 8 0 23 -34
25 -53 0 -4 5 -11 12 -15 28 -18 42 -78 40 -178 -2 -86 -5 -103 -24 -128 -13
-16 -23 -34 -23 -41 0 -7 -7 -18 -15 -25 -8 -7 -15 -21 -15 -31 0 -11 -5 -19
-11 -19 -5 0 -8 -3 -6 -7 3 -5 -4 -16 -13 -26 -25 -26 -31 -12 -36 91 -3 48
-9 91 -14 95 -9 10 -51 -23 -44 -35 3 -4 1 -8 -3 -8 -5 0 -17 -13 -26 -30 -10
-16 -24 -30 -32 -30 -7 0 -17 -9 -20 -20 -8 -25 -56 -51 -93 -51 -97 1 -122 4
-117 12 4 5 0 9 -8 9 -22 0 -55 41 -88 110 -18 37 -20 146 -4 215 24 100 46
133 117 170 69 36 107 39 186 15z"/>
<path d="M4319 35566 c-2 -2 -24 -5 -49 -7 -25 -1 -52 -6 -60 -10 -8 -4 -37
-9 -65 -13 -81 -9 -157 -27 -203 -47 -23 -10 -54 -19 -68 -19 -14 0 -62 -18
-106 -40 -45 -22 -89 -40 -98 -40 -22 0 -80 -40 -144 -97 -27 -24 -70 -56 -95
-71 -50 -29 -103 -80 -196 -187 -33 -38 -83 -95 -112 -125 -46 -49 -95 -130
-123 -205 -5 -14 -14 -25 -19 -25 -8 0 -17 -19 -26 -57 -2 -7 -21 -48 -44 -92
-37 -72 -50 -111 -64 -191 -3 -14 -12 -43 -20 -65 -21 -52 -37 -117 -48 -185
-4 -30 -10 -66 -13 -80 -3 -14 -8 -36 -10 -50 -18 -91 -27 -403 -14 -482 22
-138 50 -287 58 -308 1 -3 3 -9 5 -15 1 -5 3 -12 4 -15 2 -3 4 -14 6 -25 17
-90 34 -140 69 -200 23 -39 59 -106 81 -150 22 -44 42 -82 45 -85 3 -3 21 -29
41 -58 45 -65 258 -292 275 -292 7 0 14 -3 16 -7 2 -5 26 -24 53 -42 28 -19
52 -38 55 -43 6 -7 76 -46 245 -134 49 -26 112 -53 140 -61 27 -8 82 -24 120
-35 39 -11 79 -21 91 -22 11 -1 24 -5 30 -8 9 -6 91 -20 214 -37 61 -9 333 -7
410 3 86 10 171 27 240 47 41 11 92 25 114 30 43 11 194 86 274 137 30 19 69
40 87 47 18 8 54 30 80 50 26 20 79 57 118 82 l71 45 24 -28 c37 -46 88 -154
119 -255 8 -26 43 -36 92 -27 24 4 47 10 50 13 6 7 8 65 17 650 8 539 8 516 0
551 -5 18 -12 24 -22 20 -8 -3 -29 1 -45 9 -51 27 -77 -1 -100 -105 -7 -30
-12 -56 -11 -57 0 -2 -8 -33 -19 -70 -11 -38 -22 -76 -24 -87 -9 -41 -88 -211
-101 -219 -8 -4 -14 -13 -14 -18 0 -6 -11 -25 -24 -42 -13 -18 -27 -43 -31
-57 -15 -52 -69 -120 -183 -232 -125 -123 -145 -136 -234 -162 -31 -9 -60 -21
-63 -27 -9 -14 -55 -32 -86 -34 -14 -1 -46 -11 -71 -23 -30 -14 -76 -23 -130
-27 -45 -4 -99 -11 -118 -17 -50 -16 -220 -10 -320 12 -168 36 -365 121 -463
200 -58 47 -212 200 -266 266 -30 36 -101 151 -101 164 0 5 -5 21 -12 37 -6
15 -12 30 -13 33 0 3 -8 19 -18 37 -23 43 -72 216 -98 348 -19 95 -22 143 -23
360 0 249 7 389 24 475 5 25 11 63 14 85 3 22 8 51 11 65 5 29 33 163 41 200
5 27 49 161 63 195 5 11 17 40 27 65 10 25 38 80 61 123 24 42 43 80 43 83 0
2 5 10 10 17 25 29 54 64 78 96 45 56 137 145 165 160 15 8 27 18 27 23 0 4 5
8 11 8 5 0 37 18 70 40 76 52 259 113 379 125 36 4 74 9 85 11 44 9 205 3 275
-11 41 -8 93 -18 115 -21 22 -4 52 -13 67 -20 15 -8 35 -14 45 -14 34 0 213
-73 273 -110 8 -5 35 -22 60 -37 65 -39 202 -181 260 -269 28 -42 50 -81 50
-87 0 -5 14 -39 31 -76 45 -94 46 -97 79 -196 27 -79 56 -191 65 -250 2 -18
19 -85 31 -126 5 -17 40 -36 64 -34 8 1 27 3 42 3 18 1 29 9 35 25 11 32 3
1268 -9 1290 -10 19 -65 47 -94 47 -27 0 -74 -59 -74 -94 0 -31 -44 -179 -74
-248 -24 -56 -45 -56 -116 -2 -34 26 -64 52 -67 59 -6 18 -110 88 -175 120
-29 14 -71 37 -93 50 -46 30 -101 55 -127 60 -10 2 -25 11 -34 19 -8 9 -25 16
-37 16 -12 0 -47 9 -77 21 -30 11 -102 30 -160 42 -58 11 -107 24 -110 27 -3
3 -30 7 -60 8 -30 1 -125 4 -211 7 -86 3 -158 3 -160 1z"/>
<path d="M7025 35436 c-18 -27 -14 -112 6 -130 8 -8 37 -17 64 -20 190 -23
287 -57 309 -109 48 -115 57 -410 41 -1387 -5 -300 -9 -614 -9 -697 -1 -84 -5
-153 -9 -153 -5 0 -6 -4 -3 -9 6 -10 7 -168 1 -221 -2 -19 -6 -87 -10 -150 -9
-181 -16 -230 -35 -274 -33 -76 -80 -111 -180 -131 -8 -2 -27 -8 -41 -13 -15
-6 -60 -11 -100 -11 -148 0 -139 2 -154 -34 -21 -50 -9 -120 23 -132 25 -10
158 -14 662 -19 250 -3 705 -9 1010 -12 821 -10 1183 -9 1208 5 23 12 29 36
37 151 14 194 16 227 20 260 7 57 26 299 30 378 2 41 6 95 9 120 4 26 8 72 11
104 5 70 -12 89 -84 94 -45 3 -52 1 -69 -24 -25 -36 -48 -97 -57 -152 -4 -25
-16 -57 -26 -72 -11 -14 -19 -35 -19 -46 0 -12 -4 -24 -10 -27 -5 -3 -10 -14
-10 -23 0 -9 -23 -53 -50 -97 -28 -44 -50 -83 -50 -87 0 -38 -219 -278 -253
-278 -9 0 -17 -5 -19 -12 -3 -7 -15 -13 -29 -14 -34 -2 -79 -15 -79 -23 0 -9
-50 -29 -91 -35 -20 -3 -49 -10 -64 -16 -54 -20 -112 -24 -410 -23 -253 0
-310 3 -365 18 -138 37 -197 82 -215 165 -22 99 -38 345 -37 555 1 337 11 772
17 797 4 14 16 30 28 35 29 13 475 6 547 -8 30 -6 62 -12 70 -13 31 -5 90 -36
113 -58 54 -52 82 -139 86 -263 2 -67 12 -138 23 -168 10 -26 15 -28 47 -24
60 8 73 13 81 28 7 12 26 1033 21 1124 -3 52 -26 75 -76 75 -54 0 -73 -23 -81
-96 -2 -27 -14 -99 -26 -159 -16 -90 -26 -117 -48 -142 -33 -37 -62 -54 -110
-64 -19 -5 -57 -13 -85 -19 -63 -14 -508 -14 -551 0 -26 9 -32 17 -37 48 -5
39 -1 742 7 1069 5 186 11 226 40 245 6 4 177 5 381 2 310 -4 384 -8 460 -24
221 -46 337 -113 395 -226 13 -27 33 -60 42 -74 23 -33 84 -191 113 -296 33
-117 46 -134 105 -134 81 0 86 19 62 240 -6 58 -14 134 -17 170 -3 36 -8 79
-10 95 -3 17 -8 82 -11 145 -4 63 -7 126 -8 140 -1 14 -6 42 -10 62 -14 63 27
59 -896 74 -234 3 -530 7 -657 8 -128 0 -233 3 -233 6 0 3 -162 6 -360 7 -360
1 -361 1 -375 -21z"/>
<path d="M12538 35445 c-4 -4 -39 -7 -79 -6 -40 0 -113 -6 -163 -14 -50 -8
-109 -17 -131 -20 -53 -7 -64 -9 -105 -22 -19 -6 -62 -19 -95 -28 -33 -10 -65
-22 -71 -27 -6 -4 -18 -6 -27 -2 -13 5 -61 -18 -77 -36 -5 -7 -60 -32 -140
-66 -25 -10 -68 -37 -95 -60 -28 -22 -75 -52 -105 -66 -30 -15 -64 -35 -75
-45 -11 -10 -49 -43 -85 -72 -94 -78 -173 -163 -200 -215 -13 -26 -29 -51 -37
-57 -7 -6 -13 -17 -13 -23 0 -6 -22 -38 -48 -71 -27 -33 -58 -85 -70 -115 -11
-30 -30 -73 -41 -95 -12 -21 -21 -50 -21 -63 0 -14 -8 -39 -19 -56 -10 -17
-24 -65 -31 -106 -7 -41 -19 -101 -27 -133 -8 -32 -12 -61 -9 -64 2 -3 1 -16
-5 -30 -16 -43 -19 -398 -3 -523 7 -63 16 -133 19 -155 2 -22 16 -80 30 -130
15 -49 31 -110 37 -135 14 -64 138 -312 200 -402 47 -67 160 -202 195 -232 7
-6 26 -22 41 -36 16 -14 44 -36 62 -50 18 -14 49 -40 70 -58 47 -41 161 -112
265 -164 44 -22 83 -45 86 -50 3 -5 10 -10 15 -10 5 0 24 -6 42 -14 19 -7 52
-19 75 -25 23 -5 76 -21 117 -35 41 -14 91 -27 110 -30 19 -3 60 -10 90 -16
80 -17 81 -17 130 -23 25 -3 61 -8 80 -10 79 -12 351 -16 440 -6 52 6 115 13
140 15 25 3 83 14 130 26 47 12 92 23 100 25 8 2 33 10 55 18 22 8 58 17 80
21 21 4 56 16 77 27 21 11 38 17 38 14 0 -2 16 4 35 15 74 42 140 74 148 72 4
-1 7 3 7 8 0 6 6 10 13 10 7 0 47 23 87 51 40 27 85 56 99 64 60 32 244 211
321 313 30 40 60 79 65 85 20 22 75 106 75 113 0 4 6 15 13 23 49 58 160 386
182 535 15 106 22 419 11 496 -3 19 -8 64 -11 100 -3 36 -8 83 -12 105 -8 46
-6 38 -22 95 -7 25 -15 56 -18 70 -2 14 -9 41 -14 60 -6 19 -19 65 -28 101
-10 37 -39 103 -65 149 -25 45 -46 87 -46 92 0 6 -13 29 -28 52 -69 102 -143
206 -164 232 -88 107 -337 300 -477 368 -51 25 -98 49 -105 54 -26 20 -377
131 -416 132 -14 0 -80 12 -145 26 -90 19 -161 27 -285 31 -91 3 -168 2 -172
-2z m292 -190 c60 -9 140 -25 177 -36 37 -11 91 -27 118 -35 28 -7 61 -19 75
-25 199 -90 328 -189 413 -313 22 -34 48 -69 58 -79 23 -25 84 -148 115 -232
59 -158 91 -288 119 -480 2 -11 4 -20 5 -20 2 0 9 -75 19 -215 14 -205 1 -489
-28 -620 -11 -47 -24 -114 -30 -150 -14 -83 -53 -208 -91 -288 -17 -35 -30
-67 -30 -72 0 -13 -93 -191 -121 -231 -50 -72 -208 -217 -272 -249 -34 -17
-82 -44 -107 -59 -42 -26 -148 -64 -250 -91 -25 -7 -52 -15 -60 -18 -51 -18
-97 -23 -225 -23 -146 -1 -298 9 -332 22 -13 5 -57 16 -96 25 -40 8 -81 19
-92 24 -11 5 -39 14 -62 20 -23 6 -54 17 -70 25 -15 8 -34 15 -40 15 -7 0 -13
4 -13 9 0 5 -12 12 -27 16 -15 3 -50 25 -77 48 -51 42 -226 216 -279 278 -46
54 -137 251 -151 330 -3 13 -5 24 -6 24 -1 0 -3 7 -5 15 -1 8 -14 59 -28 112
-14 53 -29 128 -32 165 -3 37 -8 84 -10 103 -1 19 -6 62 -11 95 -10 80 -11
438 -1 545 13 137 78 487 100 540 12 30 13 32 29 90 7 25 15 47 18 50 3 3 18
32 34 65 65 132 221 331 306 388 83 56 110 72 180 107 121 62 325 120 455 129
180 12 218 12 325 -4z"/>
<path d="M2892 31329 c-9 -4 -20 -5 -24 -2 -5 2 -8 0 -8 -6 0 -5 -15 -8 -32
-7 -45 2 -110 -43 -133 -91 -9 -21 -28 -60 -42 -88 -35 -72 -37 -187 -3 -270
28 -69 51 -99 100 -129 47 -30 102 -44 175 -45 63 -1 191 30 178 42 -9 10 58
3 75 -7 26 -16 33 7 31 105 -1 72 -5 99 -14 99 -7 0 -15 -10 -19 -23 -3 -13
-13 -33 -23 -44 -10 -12 -25 -32 -33 -44 -55 -86 -115 -112 -204 -89 -80 20
-95 30 -126 84 -67 118 -56 273 27 384 17 24 33 48 35 54 6 17 91 34 183 37
19 1 19 2 -2 23 -17 16 -35 22 -73 22 -28 1 -58 -2 -68 -5z"/>
<path d="M3355 31310 c-3 -10 -1 -28 5 -40 6 -11 8 -20 4 -20 -3 0 0 -7 7 -17
11 -12 14 -61 13 -217 -1 -217 -4 -236 -60 -291 -14 -14 -22 -29 -19 -35 3 -5
87 -10 193 -10 103 -1 213 -1 245 -2 83 0 94 12 95 112 2 109 -23 118 -68 25
-32 -65 -63 -80 -202 -91 -52 -5 -57 -3 -64 18 -12 37 -11 159 2 203 11 39 13
40 54 39 31 -1 47 -7 66 -27 14 -15 29 -27 33 -27 13 0 23 86 16 131 -7 41
-14 46 -33 27 -20 -20 -116 -57 -125 -48 -5 4 -11 44 -14 89 -9 130 21 165
130 153 15 -2 27 -9 27 -18 0 -8 6 -14 14 -14 8 0 31 -20 52 -45 20 -25 41
-45 46 -45 5 0 8 26 7 58 l-2 58 -50 27 c-37 20 -54 24 -63 16 -16 -13 -122
-19 -144 -9 -8 4 -47 10 -87 14 -65 5 -72 4 -78 -14z"/>
<path d="M3943 31317 c-28 -12 -28 -17 -1 -64 23 -41 50 -141 42 -155 -3 -5
-5 -67 -5 -139 0 -136 -7 -170 -48 -216 -10 -13 -24 -23 -31 -23 -6 0 -10 -10
-8 -22 3 -21 8 -23 63 -21 64 2 105 11 105 23 0 4 -9 15 -20 25 -16 15 -38 82
-33 105 0 3 4 57 7 120 8 142 16 199 27 206 10 6 69 -51 69 -66 0 -4 18 -27
40 -51 22 -24 40 -49 40 -55 0 -6 7 -18 16 -25 9 -7 38 -45 64 -84 54 -79 160
-195 178 -195 13 0 15 22 11 115 -3 76 -3 84 5 175 3 41 8 106 11 144 3 38 11
76 18 85 35 45 43 51 62 51 14 0 25 -13 38 -45 11 -25 22 -45 25 -44 4 0 24
22 45 50 31 41 43 49 72 51 19 1 43 2 52 2 10 1 27 -14 40 -33 22 -32 23 -40
18 -190 -8 -260 -11 -279 -53 -318 -51 -48 -36 -55 107 -57 130 -2 149 6 92
40 -22 13 -32 28 -38 58 -4 23 -7 48 -6 56 1 8 3 92 3 185 1 151 4 175 22 213
21 42 22 42 75 42 50 0 57 -3 102 -45 54 -50 71 -56 71 -22 0 12 3 31 6 43 9
34 -52 57 -157 58 -48 1 -90 4 -93 7 -3 3 -43 3 -88 1 -108 -5 -179 -5 -370 1
-130 3 -158 1 -158 -10 0 -7 7 -16 15 -19 8 -4 15 -10 15 -15 0 -4 14 -22 30
-39 36 -37 38 -56 25 -220 -7 -83 -17 -106 -41 -92 -24 14 -94 82 -94 92 0 5
-4 10 -9 10 -9 0 -133 162 -171 225 -41 66 -51 75 -93 75 -21 0 -46 4 -55 9
-10 5 -26 4 -39 -2z"/>
<path d="M11825 31322 c-18 -4 -65 -46 -65 -58 0 -10 -92 -92 -103 -91 -36 1
-47 -5 -47 -23 0 -12 8 -35 18 -53 14 -27 17 -58 16 -209 -1 -161 -3 -179 -23
-211 -28 -45 -27 -65 4 -73 29 -7 161 -1 170 8 3 3 -5 18 -18 32 -41 44 -49
150 -17 203 21 35 44 38 104 14 16 -7 35 -10 43 -7 28 11 6 72 -27 77 -26 4
-70 -12 -79 -29 -8 -13 -12 -10 -27 21 -10 20 -20 37 -23 37 -3 0 -7 23 -9 51
-2 42 2 57 23 84 14 19 25 38 25 44 0 13 37 15 44 2 3 -5 29 -16 58 -26 29 -9
65 -28 81 -41 32 -27 47 -30 47 -11 0 24 -21 86 -33 99 -7 7 -23 29 -37 49
-29 42 -82 103 -96 111 -5 2 -18 2 -29 0z m33 -129 c-10 -2 -18 -11 -18 -19 0
-8 -7 -14 -15 -14 -19 0 -19 5 1 24 8 9 23 15 32 15 15 -1 15 -2 0 -6z"/>
<path d="M3188 31300 c-2 -7 -23 -13 -48 -14 -40 -2 -45 -4 -42 -24 2 -12 16
-36 32 -54 16 -17 27 -35 24 -40 -3 -4 -1 -8 5 -8 5 0 12 -13 16 -29 6 -28 27
-46 38 -34 8 7 -4 185 -13 202 -6 11 -8 11 -12 1z"/>
<path d="M5375 31302 c-95 -6 -110 -24 -65 -74 l30 -32 0 -186 c0 -203 -8
-248 -50 -293 -45 -48 -32 -57 80 -57 96 0 150 10 150 29 0 5 -10 11 -23 15
-43 10 -70 106 -49 171 4 11 15 31 24 44 l17 24 44 -44 c24 -24 63 -72 85
-105 59 -88 132 -145 177 -138 60 9 85 16 85 22 0 4 -28 29 -63 56 -63 50
-128 124 -158 180 -20 36 -11 63 29 90 94 63 84 180 -22 261 -31 24 -45 27
-135 30 -56 2 -104 5 -108 7 -5 2 -26 2 -48 0z m234 -81 c11 -11 25 -40 30
-63 18 -78 -32 -146 -104 -143 -16 1 -38 -2 -47 -7 -26 -13 -38 20 -38 101 0
78 12 114 44 129 31 16 91 7 115 -17z"/>
<path d="M6200 31290 c0 -5 -10 -12 -22 -16 -29 -9 -106 -60 -133 -88 -12 -12
-36 -43 -55 -71 -33 -48 -35 -54 -35 -135 1 -76 4 -92 33 -147 46 -90 109
-142 187 -157 17 -3 53 -11 80 -18 28 -8 70 -12 95 -11 54 5 148 41 188 74 24
20 62 71 67 89 1 3 9 30 20 62 15 48 17 66 7 125 -14 90 -16 99 -30 115 -6 8
-10 17 -7 19 9 10 -95 109 -114 109 -11 0 -27 7 -35 16 -9 8 -16 12 -16 8 0
-4 -6 0 -13 10 -10 14 -25 16 -82 13 -39 -2 -85 0 -102 4 -18 4 -33 3 -33 -1z
m175 -54 c17 -3 33 -5 36 -5 4 -1 23 -21 43 -46 66 -80 85 -227 45 -341 -11
-32 -22 -65 -23 -73 -4 -20 -46 -62 -57 -56 -5 3 -23 -2 -41 -11 -55 -29 -124
-26 -188 7 -30 15 -62 39 -71 51 -36 53 -59 258 -33 300 3 4 7 17 9 28 8 41
110 153 132 145 7 -2 23 -1 35 4 13 5 37 7 53 5 17 -2 44 -6 60 -8z"/>
<path d="M6967 31262 c-9 -12 -6 -20 19 -41 17 -14 34 -35 38 -46 7 -18 9
-386 2 -428 -1 -10 -14 -31 -29 -47 -33 -34 -34 -48 -4 -55 32 -7 157 -11 157
-5 0 3 40 6 88 6 143 3 255 47 289 113 10 20 21 38 24 41 22 18 31 176 14 242
-13 46 -54 128 -64 128 -4 0 -18 11 -32 24 -32 29 -116 69 -129 61 -5 -3 -19
-1 -31 6 -14 7 -82 12 -176 13 -123 2 -156 0 -166 -12z m348 -41 c35 -1 118
-86 135 -136 16 -47 20 -232 5 -243 -10 -7 -27 -32 -46 -67 -14 -28 -78 -75
-109 -81 -14 -3 -32 -9 -40 -13 -40 -20 -113 23 -126 73 -3 12 -4 113 -2 224
3 204 3 204 28 225 25 22 44 24 155 18z"/>
<path d="M7699 31249 c-7 -13 -3 -27 16 -55 24 -35 25 -44 20 -118 -3 -45 -6
-88 -6 -96 2 -123 -2 -217 -11 -234 -6 -12 -11 -23 -10 -26 1 -3 -5 -13 -13
-23 -19 -21 -19 -32 -1 -50 11 -10 39 -13 122 -10 132 4 112 4 214 -2 93 -6
136 7 133 39 0 10 2 42 6 71 8 60 -9 83 -30 42 -7 -12 -18 -26 -25 -30 -8 -4
-14 -14 -14 -20 0 -7 -24 -25 -53 -40 -86 -43 -179 -32 -197 23 -7 26 -12 141
-6 164 8 31 39 65 57 62 31 -6 75 -31 95 -55 l21 -25 -1 60 c-1 32 -5 65 -10
73 -6 10 -6 12 2 7 8 -4 10 -2 6 8 -8 21 -34 29 -34 10 0 -10 -6 -14 -14 -11
-8 3 -20 -1 -26 -9 -7 -8 -21 -14 -31 -14 -11 0 -19 -4 -19 -10 0 -21 -17 -9
-32 23 -19 40 -14 146 9 199 24 55 10 66 -83 66 -62 -1 -77 -4 -85 -19z"/>
<path d="M7918 31258 c-17 -6 -28 -17 -28 -27 0 -15 8 -18 38 -17 20 0 40 6
44 11 5 6 8 5 8 -2 0 -7 9 -13 20 -13 12 0 46 -19 77 -41 l56 -42 -7 29 c-4
16 -7 36 -8 44 -2 26 -49 54 -97 57 -25 2 -53 5 -61 7 -8 1 -27 -1 -42 -6z"/>
<path d="M8504 31257 c-3 -8 5 -32 18 -53 21 -36 23 -51 24 -199 2 -186 -9
-291 -32 -316 -20 -22 -15 -51 11 -56 45 -8 412 -8 443 1 l32 9 -6 66 c-3 36
-8 69 -10 73 -7 11 -54 -14 -54 -29 0 -7 -4 -13 -9 -13 -5 0 -22 -13 -37 -29
-16 -17 -49 -35 -75 -42 -39 -10 -52 -10 -91 6 -57 21 -62 30 -72 145 -4 44
14 96 38 112 21 14 48 8 78 -18 28 -22 77 -31 71 -11 -2 4 -3 32 -3 62 0 53
-1 55 -20 45 -11 -6 -20 -8 -20 -4 0 4 -8 0 -17 -9 -35 -31 -68 -31 -98 0 -24
26 -26 33 -23 101 2 40 8 76 14 80 6 4 13 15 17 25 5 12 17 17 45 17 21 0 42
-3 46 -7 3 -4 20 -7 37 -8 22 -1 42 -13 69 -43 34 -36 40 -39 45 -22 3 11 1
37 -6 59 -10 33 -18 41 -43 47 -33 8 -166 8 -203 0 -13 -3 -25 -1 -28 4 -3 5
-30 9 -60 9 -30 0 -59 2 -65 6 -6 3 -13 0 -16 -8z"/>
<path d="M9073 31249 c-13 -4 -23 -10 -23 -13 0 -14 13 -36 22 -36 11 0 15 -4
92 -90 90 -101 92 -104 104 -127 14 -25 16 -123 3 -123 -4 0 -22 -26 -39 -58
-38 -72 -81 -105 -152 -118 -32 -6 -44 -19 -37 -37 4 -10 29 -17 76 -22 88 -9
105 1 96 55 -5 30 -2 42 18 66 13 16 30 43 38 59 19 41 76 56 115 31 14 -10
29 -27 31 -37 3 -10 9 -19 13 -19 16 0 31 -55 24 -96 -6 -40 -4 -44 19 -53 32
-12 178 -18 195 -7 22 13 13 30 -55 101 -80 83 -164 182 -179 210 -14 27 -4
59 27 93 25 26 49 64 49 77 0 4 -24 -14 -54 -40 -32 -27 -57 -42 -61 -35 -3 5
-17 10 -30 10 -46 0 -115 110 -101 163 3 12 5 26 6 31 0 5 -30 10 -67 13 -38
2 -77 5 -88 7 -11 2 -30 0 -42 -5z"/>
<path d="M9538 31242 c-53 -3 -58 -13 -33 -62 8 -16 12 -36 9 -44 -3 -9 -3
-16 0 -16 12 0 70 32 103 58 26 19 31 28 23 42 -11 21 -37 26 -102 22z"/>
<path d="M10025 31238 c-116 -22 -145 -30 -140 -39 4 -5 -1 -9 -10 -9 -8 0
-20 -11 -24 -23 -5 -13 -15 -30 -23 -38 -17 -18 -47 -111 -56 -174 -12 -83 25
-207 77 -256 17 -16 91 -65 101 -67 3 0 17 -5 32 -11 46 -17 168 -10 168 10 0
5 -19 7 -42 5 -43 -4 -126 25 -141 50 -4 7 -13 19 -21 26 -20 20 -35 52 -55
116 -15 49 -16 71 -9 126 10 74 43 157 77 196 26 29 94 49 171 50 l55 0 -25
20 c-14 10 -26 17 -28 15 -2 -1 -17 0 -35 4 -18 4 -50 4 -72 -1z"/>
<path d="M10497 31234 c-11 -12 -8 -72 4 -76 14 -5 19 -269 8 -377 -7 -60 -13
-79 -34 -101 -22 -23 -24 -31 -15 -51 11 -24 13 -24 133 -22 136 3 207 3 252
1 74 -4 102 18 98 75 -7 98 -24 111 -61 47 -12 -22 -29 -40 -37 -40 -8 0 -15
-6 -15 -13 0 -8 -10 -13 -22 -12 -13 1 -37 -4 -55 -12 -47 -19 -74 -16 -108
14 -29 25 -30 30 -32 111 -2 64 2 93 14 113 23 39 37 42 88 18 58 -27 77 -21
68 23 -3 18 -13 38 -21 44 -16 11 -62 7 -62 -6 0 -12 -28 -20 -45 -14 -8 4
-15 12 -15 19 0 7 -5 15 -11 17 -6 2 -13 35 -15 74 -4 56 -2 74 11 84 8 7 15
18 15 25 0 27 98 36 123 10 8 -8 17 -11 21 -8 3 4 6 0 6 -7 0 -7 3 -11 6 -7 3
3 15 -2 26 -13 11 -10 30 -20 44 -23 20 -4 23 -1 21 22 -7 57 -34 71 -157 76
-47 2 -117 7 -156 10 -38 3 -73 2 -77 -1z"/>
<path d="M11062 31227 c-28 -13 -28 -21 6 -64 27 -36 27 -38 28 -197 1 -191
-11 -265 -49 -300 -35 -32 -34 -53 1 -60 47 -9 452 0 463 11 21 21 27 79 12
114 l-14 33 -39 -44 c-22 -25 -40 -50 -40 -56 0 -13 -50 -27 -95 -27 -89 0
-106 3 -113 24 -5 11 -12 20 -17 19 -18 -2 -23 72 -19 250 5 186 7 201 34 240
28 39 8 57 -70 62 -36 3 -75 0 -88 -5z"/>
<path d="M12140 31214 c0 -11 21 -44 44 -69 14 -15 27 -44 31 -66 6 -37 26
-52 40 -29 7 12 45 14 45 2 0 -4 18 -28 40 -52 22 -25 40 -50 40 -57 0 -6 8
-18 18 -25 10 -7 33 -34 52 -60 18 -27 37 -48 42 -48 4 0 8 -6 8 -14 0 -8 7
-16 15 -20 8 -3 15 -11 15 -18 0 -26 106 -138 130 -138 15 0 17 12 16 90 -1
70 -4 91 -16 96 -8 3 -16 5 -18 4 -1 0 -12 9 -24 20 -12 11 -28 20 -35 20 -7
0 -12 3 -10 8 1 4 -12 21 -28 37 -17 17 -49 52 -70 80 -22 27 -47 57 -55 66
-8 10 -28 36 -45 59 -48 67 -93 107 -126 114 -39 8 -109 8 -109 0z"/>
<path d="M12588 31202 c-4 -15 5 -28 33 -48 21 -16 42 -38 47 -49 l10 -20 7
20 c5 11 19 29 33 41 22 18 23 22 11 42 -7 12 -23 21 -34 20 -11 -1 -39 2 -61
6 -36 6 -42 5 -46 -12z"/>
<path d="M13039 31206 c-2 -3 -16 -6 -29 -8 -95 -14 -190 -154 -190 -280 0
-82 22 -160 56 -206 33 -43 54 -66 54 -58 0 3 8 -2 19 -13 33 -33 175 -70 185
-48 3 9 5 8 5 0 1 -7 6 -13 12 -13 8 0 8 4 0 14 -7 8 -20 12 -30 9 -24 -6 -66
20 -114 72 -61 65 -72 97 -72 210 0 92 3 105 33 171 46 97 91 128 180 121 34
-3 69 -10 77 -17 8 -7 15 -9 15 -4 0 5 4 5 8 -1 4 -5 16 -15 27 -21 11 -6 33
-30 48 -52 16 -23 35 -42 44 -42 13 0 15 9 10 57 -7 70 -21 85 -82 85 -26 0
-65 6 -87 14 -37 13 -159 20 -169 10z"/>
<path d="M13535 31203 c-34 -8 -37 -20 -12 -45 34 -34 39 -66 42 -262 2 -153
0 -176 -18 -214 -11 -24 -26 -46 -34 -49 -14 -5 -19 -42 -5 -44 34 -5 216 -3
230 3 12 5 10 7 -11 7 -24 1 -32 9 -52 53 -19 40 -23 62 -18 95 3 26 1 48 -6
56 -6 8 -9 16 -6 19 3 2 6 68 8 145 3 137 4 142 32 178 27 36 27 38 10 51 -18
14 -116 17 -160 7z"/>
<path d="M10238 31192 c-45 -4 -49 -15 -10 -31 29 -12 67 -64 78 -106 9 -38
29 -25 30 21 1 53 -18 106 -42 113 -10 4 -36 5 -56 3z"/>
<path d="M14054 31157 c-22 -19 -27 -33 -29 -74 -1 -33 -9 -60 -23 -81 -24
-33 -28 -52 -11 -52 5 0 7 5 4 10 -3 6 0 10 9 10 8 0 16 5 18 12 2 6 12 12 23
14 50 7 92 -72 74 -141 -10 -36 -9 -41 13 -57 50 -39 63 -54 65 -73 6 -48 6
-82 -1 -102 -6 -19 -2 -25 19 -33 39 -15 132 -13 138 3 6 16 -21 77 -34 77 -5
0 -9 7 -9 16 0 9 -9 33 -19 53 -28 52 -61 126 -61 135 0 4 -14 38 -31 74 -17
37 -37 87 -45 112 -20 61 -46 108 -61 114 -7 3 -25 -5 -39 -17z"/>
<path d="M12220 30910 c0 -5 5 -10 11 -10 5 0 7 5 4 10 -3 6 -8 10 -11 10 -2
0 -4 -4 -4 -10z"/>
<path d="M13944 30866 c-3 -14 -12 -27 -20 -30 -16 -6 -19 -42 -4 -51 15 -9
50 14 59 38 8 22 -5 67 -20 67 -5 0 -11 -11 -15 -24z"/>
<path d="M12220 30831 c0 -23 2 -41 4 -41 8 0 12 71 4 76 -4 3 -8 -13 -8 -35z"/>
<path d="M10290 30774 c-14 -19 -37 -50 -52 -67 -16 -17 -28 -34 -28 -38 0 -4
-11 -10 -25 -13 -14 -4 -25 -13 -25 -21 0 -13 4 -13 33 2 35 18 43 21 100 30
37 6 37 6 38 54 1 27 2 57 3 66 2 29 -18 23 -44 -13z"/>
<path d="M12227 30774 c-4 -4 -7 -14 -7 -23 0 -11 3 -12 11 -4 6 6 10 16 7 23
-2 6 -7 8 -11 4z"/>
<path d="M13319 30733 c-13 -21 -28 -43 -34 -50 -5 -7 -16 -19 -23 -28 -17
-20 -9 -31 20 -29 43 3 77 16 84 32 14 35 15 95 2 103 -21 14 -25 11 -49 -28z"/>
<path d="M13882 30717 c-6 -15 -22 -32 -34 -38 -32 -15 -69 -64 -63 -82 4 -10
21 -14 59 -12 62 2 80 11 71 34 -4 9 -10 41 -14 71 -7 53 -8 54 -19 27z"/>
<path d="M12010 30693 c-19 -18 -52 -41 -72 -50 -21 -9 -39 -22 -42 -28 -6
-17 107 -19 161 -3 43 12 52 21 32 33 -6 4 -10 19 -9 33 1 15 2 33 1 40 -2 22
-35 10 -71 -25z"/>
<path d="M12201 30683 c-6 -10 -11 -15 -11 -11 0 4 -8 1 -17 -7 -10 -8 -27
-21 -37 -28 -19 -14 -19 -15 3 -27 20 -10 86 -16 144 -11 22 1 13 20 -32 69
-35 37 -37 38 -50 15z"/>
<path d="M4135 30349 c-5 -14 0 -28 16 -46 26 -26 27 -46 19 -339 -3 -140 -7
-158 -36 -187 -14 -15 -21 -31 -18 -43 5 -18 13 -19 92 -16 115 5 127 4 270
-1 115 -5 124 -4 142 16 13 14 18 28 13 41 -3 12 -5 41 -5 66 1 25 -2 52 -7
60 -10 15 -16 11 -70 -55 -9 -11 -33 -35 -54 -52 -35 -30 -43 -33 -106 -33
-69 0 -69 0 -90 36 -16 27 -21 51 -20 101 1 56 6 70 29 96 32 37 66 32 107
-13 15 -17 31 -29 36 -27 15 5 17 185 2 191 -7 2 -18 -7 -24 -20 -14 -31 -46
-43 -90 -33 -44 10 -49 20 -50 92 0 68 23 125 54 132 35 8 91 0 108 -15 9 -8
32 -26 51 -40 20 -14 36 -33 36 -43 0 -15 3 -15 20 -5 11 7 20 20 20 28 0 27
-27 92 -41 101 -8 4 -77 9 -154 9 -155 1 -218 5 -233 14 -6 3 -14 -3 -17 -15z"/>
<path d="M4697 30337 c-3 -9 4 -20 19 -27 32 -18 44 -55 45 -150 1 -30 4 -59
7 -64 3 -6 4 -33 2 -60 -1 -28 -4 -76 -4 -106 -2 -56 -31 -119 -77 -163 -11
-10 -19 -24 -19 -33 0 -17 34 -32 64 -28 86 10 107 14 116 19 7 4 1 24 -15 53
-24 43 -27 56 -25 147 3 142 3 147 22 173 l16 23 26 -56 c14 -32 26 -59 26
-62 0 -2 12 -30 26 -61 14 -31 33 -73 41 -92 51 -119 70 -143 97 -121 17 15
61 104 58 119 -2 6 1 12 6 12 9 0 62 98 62 114 0 14 94 133 105 133 8 0 10
-23 8 -71 -9 -212 -15 -246 -55 -274 -11 -8 -18 -23 -16 -35 3 -21 8 -22 93
-20 131 3 135 4 124 25 -5 9 -13 19 -18 22 -5 4 -13 25 -17 49 -8 49 -7 333 2
392 6 42 47 115 64 115 6 0 10 5 10 10 0 6 -10 8 -24 4 -13 -3 -27 -1 -30 5
-8 13 -85 15 -103 3 -27 -17 -84 -109 -89 -145 -4 -20 -11 -40 -15 -43 -5 -3
-9 -14 -9 -25 0 -10 -4 -19 -10 -19 -5 0 -10 -5 -10 -10 0 -6 -11 -28 -25 -50
-14 -22 -25 -43 -24 -47 7 -41 -20 -76 -60 -79 -29 -2 -34 3 -56 47 -14 27
-34 72 -46 101 -11 29 -33 80 -48 113 -16 33 -38 81 -50 107 -25 52 -28 54
-122 63 -53 5 -67 3 -72 -8z"/>
<path d="M6118 30339 c-32 -3 -69 -14 -84 -23 -14 -10 -46 -20 -72 -22 -25 -3
-54 -12 -64 -21 -32 -29 -77 -135 -89 -209 -10 -61 -9 -79 5 -120 9 -26 16
-56 16 -66 0 -10 7 -21 15 -24 8 -4 15 -11 15 -16 0 -9 48 -58 95 -96 9 -8 23
-11 31 -8 7 3 14 0 14 -6 0 -6 3 -9 6 -5 4 3 21 -1 38 -10 23 -12 55 -16 124
-15 80 2 102 6 155 31 165 77 218 255 131 439 -16 35 -23 42 -90 102 -55 50
-158 79 -246 69z m102 -49 c0 -5 7 -10 16 -10 9 0 34 -15 57 -34 58 -47 82
-130 75 -255 -5 -85 -7 -92 -47 -147 -22 -31 -41 -54 -41 -50 0 3 -12 -7 -27
-24 -17 -18 -40 -32 -58 -34 -52 -6 -156 13 -185 34 -44 32 -77 112 -83 204
-9 143 45 260 144 309 37 18 149 24 149 7z"/>
<path d="M6628 30316 c-16 -11 -16 -16 -1 -57 12 -34 15 -81 14 -214 -2 -207
-7 -250 -37 -295 -28 -41 -30 -58 -6 -60 46 -3 153 2 176 8 26 7 26 8 9 32
-29 40 -40 99 -30 168 12 93 51 127 92 82 10 -11 22 -17 26 -14 5 3 9 0 9 -5
0 -6 9 -11 20 -11 21 0 23 10 20 85 -1 22 -7 46 -15 54 -11 11 -18 8 -45 -18
-39 -37 -42 -37 -75 -8 -24 20 -27 29 -26 87 0 122 56 172 146 132 61 -27 73
-37 100 -77 42 -63 69 -61 128 9 52 60 89 74 144 54 49 -18 48 -9 44 -338 -1
-140 -1 -140 -53 -212 -7 -9 -9 -21 -4 -25 10 -11 152 -17 173 -7 18 7 27 10
41 13 4 1 3 5 -3 9 -5 4 -20 25 -32 48 -21 39 -22 47 -17 250 5 180 8 213 24
239 17 27 23 30 67 29 58 -1 88 -15 125 -57 34 -39 48 -27 36 28 -8 37 -12 42
-54 54 -59 18 -502 25 -522 9 -10 -8 -30 -8 -75 1 -34 6 -98 12 -142 12 -44
-1 -116 1 -161 3 -52 2 -86 -1 -96 -8z"/>
<path d="M8406 30295 c-17 -13 -17 -14 2 -35 11 -12 23 -39 26 -59 13 -89 20
-171 19 -226 -2 -171 0 -158 -44 -204 -22 -22 -49 -46 -60 -51 -30 -16 -65 14
-99 86 -17 35 -35 66 -40 69 -4 3 -12 20 -16 38 -3 17 -12 45 -20 62 -37 88
-45 105 -54 110 -6 3 -10 13 -10 20 0 8 -14 44 -30 81 -17 36 -32 71 -33 77
-1 6 -6 16 -12 23 -20 23 -110 -125 -120 -198 -4 -27 -11 -48 -16 -48 -10 0
-29 -33 -34 -60 -2 -10 -17 -47 -34 -82 -17 -34 -31 -68 -31 -75 0 -6 -10 -19
-22 -27 -12 -9 -18 -16 -13 -16 5 0 -4 -14 -20 -30 -24 -25 -27 -34 -19 -48
13 -20 60 -27 97 -13 21 8 25 15 20 33 -20 84 -12 113 51 171 27 24 35 27 83
22 68 -6 117 -27 138 -58 21 -32 30 -93 17 -109 -5 -7 -12 -24 -14 -38 -3 -23
1 -25 47 -31 28 -3 71 -3 96 1 25 3 61 5 80 2 75 -9 168 -6 182 7 14 11 12 18
-16 63 -31 49 -31 53 -31 166 1 78 5 117 13 120 6 2 18 11 26 19 14 13 18 10
35 -29 12 -23 25 -50 30 -58 16 -26 89 -188 95 -212 2 -5 3 -14 4 -21 1 -16
48 -40 62 -32 5 4 21 32 35 63 42 92 44 95 69 137 14 22 32 56 41 75 16 34 49
70 65 70 13 0 19 -31 20 -110 2 -112 -8 -162 -42 -198 -28 -30 -37 -56 -21
-65 4 -3 43 -6 87 -8 64 -3 86 0 105 14 23 17 24 19 8 31 -32 24 -40 95 -35
296 l4 191 31 38 31 39 -22 15 c-29 18 -108 8 -137 -18 -26 -23 -72 -122 -74
-157 0 -15 -7 -33 -13 -40 -7 -6 -13 -16 -13 -21 0 -5 -9 -21 -20 -37 -11 -15
-25 -50 -30 -78 -17 -75 -29 -87 -71 -72 -30 11 -40 25 -77 100 -23 48 -42 90
-42 93 0 6 -34 85 -71 163 -11 23 -27 48 -37 57 -24 21 -103 29 -126 12z
m-356 -297 c0 -18 -5 -28 -14 -28 -8 0 -16 -7 -20 -15 -3 -9 -18 -15 -40 -15
-29 0 -36 4 -45 32 -8 21 -8 35 -1 42 5 5 10 18 10 29 0 10 15 31 32 48 l33
29 22 -47 c12 -27 22 -60 23 -75z"/>
<path d="M9547 30303 c-4 -3 -15 -7 -25 -8 -140 -13 -223 -75 -263 -195 -31
-96 -23 -172 31 -276 45 -86 86 -124 142 -128 18 -2 47 -8 63 -15 47 -20 175
-19 205 0 14 10 36 20 50 24 26 8 83 45 88 58 2 4 14 20 26 35 30 36 60 150
53 199 -23 142 -77 222 -181 268 -32 14 -60 24 -63 21 -2 -2 -28 2 -56 10 -60
16 -62 16 -70 7z m106 -54 c63 -15 128 -104 140 -191 4 -24 9 -56 12 -72 3
-15 -1 -49 -9 -75 -8 -25 -17 -58 -20 -73 -4 -15 -17 -38 -31 -52 -14 -14 -25
-29 -25 -33 0 -12 -30 -36 -60 -48 -20 -9 -102 -10 -169 -3 -24 3 -93 85 -117
139 -19 45 -22 69 -21 144 1 50 6 97 12 105 5 8 10 21 11 28 1 6 15 32 31 57
28 45 70 71 138 86 30 7 36 6 108 -12z"/>
<path d="M10030 30280 c-9 -16 -7 -24 5 -37 33 -32 38 -67 36 -253 -2 -193
-10 -249 -40 -279 -46 -46 -44 -47 201 -48 215 -2 230 -1 249 18 10 10 19 34
20 52 0 17 3 44 5 60 7 42 -22 34 -75 -20 -57 -60 -82 -73 -140 -74 -75 -2
-78 0 -101 36 -20 33 -22 47 -21 230 0 179 2 198 22 242 13 26 24 54 25 61 3
17 -38 25 -97 20 -27 -3 -52 -1 -55 3 -9 15 -23 10 -34 -11z"/>
<path d="M10757 30266 c-79 -42 -144 -103 -171 -160 -24 -52 -25 -166 -1 -241
21 -67 75 -133 134 -163 42 -22 138 -45 152 -36 5 3 9 1 9 -5 0 -6 20 -8 48
-6 149 11 244 79 294 211 12 32 26 62 30 65 4 3 -3 36 -16 75 -25 76 -27 81
-34 107 -2 9 -9 17 -14 17 -5 0 -7 4 -4 8 3 5 -14 29 -38 54 -30 31 -58 49
-91 58 -26 7 -49 19 -52 27 -6 15 -113 18 -148 4 -11 -5 -27 -5 -36 0 -11 6
-32 1 -62 -15z m238 -39 c76 -29 108 -87 122 -224 8 -78 -21 -195 -64 -254
-19 -27 -40 -49 -46 -50 -7 0 -19 -2 -27 -3 -106 -21 -160 -9 -239 53 -66 52
-92 204 -56 327 8 29 16 57 17 61 3 15 72 83 83 83 7 0 17 6 23 13 6 7 28 14
49 15 20 2 39 5 41 7 4 3 44 -8 97 -28z"/>
<path d="M11547 30282 c-6 -2 -19 -6 -27 -9 -8 -4 -18 -5 -22 -5 -5 1 -8 -4
-8 -12 0 -8 -11 -17 -24 -20 -32 -8 -110 -101 -127 -151 -7 -22 -16 -44 -20
-50 -7 -10 -5 -137 3 -167 7 -29 51 -108 60 -108 4 0 8 -6 8 -12 0 -18 109
-88 136 -88 13 0 25 -4 28 -9 6 -9 191 -2 191 9 0 1 13 4 28 6 43 7 108 52
106 72 -3 24 10 70 33 115 18 37 19 39 2 52 -22 16 -101 26 -147 18 -25 -4
-34 -10 -32 -22 2 -9 4 -22 4 -28 1 -7 7 -13 14 -13 20 0 22 -86 2 -93 -8 -4
-15 -15 -15 -26 0 -13 -12 -27 -30 -36 -16 -9 -30 -13 -30 -10 0 4 -7 0 -15
-9 -12 -12 -22 -13 -48 -4 -17 6 -37 15 -43 19 -6 5 -14 6 -17 2 -4 -3 -7 -1
-7 6 0 7 -4 10 -9 6 -13 -7 -65 44 -85 83 -56 109 -33 302 47 395 23 28 96 50
156 48 40 -1 141 -47 141 -64 1 -19 34 -54 58 -61 21 -7 22 -4 22 47 l0 54
-87 27 c-49 16 -95 30 -103 33 -18 6 -125 9 -143 5z"/>
<path d="M12093 30269 c-24 -3 -45 -8 -49 -11 -3 -3 7 -25 22 -48 30 -45 32
-69 26 -290 -1 -41 -2 -97 -2 -125 -1 -36 -8 -61 -26 -89 -40 -60 -27 -64 179
-53 17 1 25 17 8 17 -5 0 -12 8 -15 18 -4 9 -15 32 -26 51 -17 31 -19 54 -17
238 1 135 6 206 13 211 6 4 16 17 22 28 23 44 -34 67 -135 53z"/>
<path d="M12604 30225 c-31 -21 -56 -90 -48 -130 5 -27 1 -38 -25 -64 -17 -17
-32 -37 -33 -44 0 -7 -2 -16 -3 -22 -2 -5 -3 -18 -4 -28 0 -9 -10 -25 -21 -34
-11 -10 -20 -23 -20 -30 0 -7 -9 -27 -19 -44 -11 -17 -17 -37 -15 -44 3 -7
-17 -36 -44 -64 -36 -37 -57 -51 -78 -52 l-29 0 25 -11 c14 -5 53 -12 86 -14
57 -4 62 -3 67 18 4 12 4 47 0 78 -5 50 -3 59 21 87 15 17 39 34 55 38 32 7
46 37 30 66 -17 33 -10 68 21 100 45 47 69 28 84 -64 4 -25 2 -37 -6 -37 -6 0
-8 -3 -5 -7 4 -3 1 -13 -6 -21 -10 -13 -9 -15 4 -10 13 5 16 2 12 -13 -3 -12
0 -19 8 -19 20 -1 54 -32 72 -66 11 -22 14 -47 10 -92 l-6 -62 75 0 c70 0 76
2 86 25 6 13 8 26 3 29 -14 9 -61 83 -65 102 -2 10 -23 59 -46 108 -23 50 -55
124 -71 165 -36 94 -72 164 -85 168 -5 2 -19 -4 -30 -12z"/>
</g>
</svg>
