<?xml version="1.0" standalone="no"?>
<!DOCTYPE svg PUBLIC "-//W3C//DTD SVG 20010904//EN"
 "http://www.w3.org/TR/2001/REC-SVG-20010904/DTD/svg10.dtd">
<svg version="1.0" xmlns="http://www.w3.org/2000/svg"
 width="1000.000000pt" height="1000.000000pt" viewBox="0 0 1000.000000 1000.000000"
 preserveAspectRatio="xMidYMid meet">

<g transform="translate(0.000000,1000.000000) scale(0.100000,-0.100000)"
fill="#0e29ab" stroke="none">
<path d="M4978 9296 c-1 -2 -120 -6 -263 -10 -143 -3 -278 -10 -300 -15 -22
-5 -80 -12 -130 -15 -49 -4 -115 -11 -145 -16 -30 -5 -109 -16 -175 -26 -66
-9 -142 -22 -170 -29 -27 -7 -70 -16 -95 -20 -25 -4 -79 -16 -120 -27 -41 -11
-129 -35 -195 -53 -183 -50 -223 -61 -320 -95 -49 -17 -110 -38 -135 -47 -54
-18 -100 -36 -243 -97 -59 -25 -113 -46 -119 -46 -14 0 -434 -207 -469 -231
-14 -10 -54 -33 -90 -52 -124 -65 -205 -113 -259 -154 -31 -22 -73 -49 -95
-61 -22 -11 -85 -54 -140 -95 -55 -41 -116 -82 -135 -92 -19 -10 -37 -21 -40
-24 -3 -3 -30 -26 -60 -51 -30 -25 -61 -51 -69 -59 -8 -7 -76 -59 -150 -115
-156 -117 -428 -368 -437 -402 -4 -16 3 -44 20 -79 14 -31 26 -57 26 -59 0 -2
8 -21 17 -42 9 -22 17 -41 18 -44 0 -3 11 -27 23 -54 12 -27 22 -51 22 -54 0
-3 11 -28 24 -56 13 -28 38 -85 55 -126 16 -41 63 -156 104 -255 41 -99 78
-191 82 -204 4 -14 27 -65 50 -115 24 -50 46 -102 49 -116 4 -14 18 -47 31
-75 13 -27 38 -84 55 -125 18 -41 43 -99 56 -128 13 -29 24 -55 24 -57 0 -2
12 -30 27 -62 14 -32 32 -72 38 -90 7 -17 24 -52 39 -77 27 -46 49 -52 61 -17
13 41 295 510 388 643 24 35 65 95 92 133 26 39 69 96 94 128 152 194 215 270
251 308 14 14 47 52 74 85 59 70 417 428 500 499 172 147 237 199 326 264 30
22 60 45 67 50 37 32 326 218 428 276 125 71 301 161 420 215 39 17 79 35 90
40 200 92 532 203 805 269 476 115 797 153 1285 151 176 0 338 -2 360 -4 22
-2 90 -7 150 -11 252 -15 417 -39 805 -116 243 -48 212 -41 335 -74 55 -14
118 -31 140 -36 22 -6 92 -26 155 -46 63 -19 129 -38 145 -43 47 -12 199 -65
330 -115 165 -63 174 -67 310 -118 121 -45 269 -108 358 -153 27 -13 53 -24
58 -24 5 0 68 -29 139 -64 135 -67 186 -74 78 -11 -35 20 -70 40 -78 44 -8 4
-40 22 -70 38 -30 17 -104 57 -165 88 -60 31 -115 61 -121 66 -13 10 -330 169
-338 169 -4 0 -59 25 -124 56 -231 111 -499 230 -562 249 -14 4 -47 18 -75 30
-27 12 -70 30 -95 40 -25 10 -58 23 -75 30 -53 23 -297 111 -385 140 -47 15
-94 31 -105 36 -43 18 -336 109 -465 144 -74 20 -153 43 -175 51 -23 7 -49 14
-59 14 -10 0 -49 8 -85 19 -36 10 -91 24 -121 30 -30 6 -95 20 -145 30 -121
26 -308 59 -375 66 -30 3 -62 8 -70 10 -8 3 -62 9 -120 15 -58 5 -137 14 -175
20 -123 16 -656 45 -667 36z"/>
<path d="M4940 8190 c-135 -18 -158 -22 -210 -37 -175 -49 -417 -155 -470
-205 -14 -12 -57 -49 -95 -80 -318 -257 -497 -585 -545 -996 -11 -89 -8 -291
4 -311 2 -3 7 -30 10 -59 7 -65 18 -109 62 -242 70 -212 175 -377 341 -541
158 -154 213 -196 401 -304 121 -70 345 -136 527 -156 94 -10 334 -6 355 5 3
2 29 6 58 10 118 14 293 76 432 153 36 20 81 45 100 56 127 70 298 230 418
392 20 27 91 145 110 182 39 76 107 281 122 367 6 33 15 85 20 115 22 122 4
391 -34 532 -52 189 -99 298 -199 458 -54 87 -168 223 -235 279 -26 22 -58 50
-72 63 -90 80 -326 207 -470 254 -208 66 -439 90 -630 65z m1037 -557 c64 -30
105 -78 128 -148 33 -105 -6 -199 -115 -279 -61 -45 -61 -45 -138 -43 -69 2
-83 6 -130 36 -76 48 -113 107 -129 203 -11 67 44 164 123 219 77 53 164 57
261 12z"/>
<path d="M1384 5159 c-96 -17 -254 -124 -254 -173 0 -8 -7 -22 -16 -30 -35
-36 -35 -224 1 -299 23 -48 105 -133 150 -155 134 -65 300 -48 395 41 98 90
140 199 120 305 -5 29 -14 60 -19 70 -5 9 -9 20 -10 25 -3 32 -95 148 -133
168 -46 25 -193 54 -234 48z m167 -77 c42 -18 79 -53 79 -74 0 -16 -73 -8
-104 11 -49 30 -114 22 -169 -19 -92 -71 -123 -152 -98 -257 12 -50 62 -123
84 -123 7 0 26 -7 42 -16 40 -21 108 -22 175 -2 47 13 56 13 63 2 10 -18 1
-34 -19 -34 -9 0 -30 -11 -47 -24 -88 -66 -263 -33 -356 68 -53 57 -74 109
-77 191 -3 63 0 77 26 122 37 65 112 130 181 158 67 26 154 25 220 -3z m-11
-93 c32 -10 42 -21 67 -70 17 -32 33 -56 37 -52 3 3 6 30 6 58 0 33 5 57 14
64 8 7 16 8 19 4 56 -92 66 -121 64 -189 -2 -58 -8 -77 -35 -120 -18 -28 -32
-56 -32 -63 0 -6 -7 -11 -15 -11 -12 0 -15 13 -15 58 0 80 -12 93 -42 49 -13
-20 -42 -50 -63 -67 -34 -27 -44 -30 -84 -25 -58 7 -84 24 -109 76 -16 32 -20
56 -17 103 5 95 29 142 84 171 53 28 69 29 121 14z"/>
<path d="M2425 4509 c-22 -4 -67 -12 -100 -18 -33 -7 -69 -13 -80 -15 -11 -1
-29 -8 -40 -13 -11 -6 -33 -13 -50 -16 -16 -2 -52 -16 -79 -31 -27 -14 -55
-26 -62 -26 -29 0 -223 -160 -302 -247 -45 -51 -87 -95 -92 -98 -14 -9 -160
-312 -160 -333 0 -11 -7 -39 -16 -63 -52 -147 -78 -436 -55 -609 14 -108 55
-270 81 -321 11 -21 30 -58 41 -81 71 -141 198 -288 327 -380 108 -77 321
-172 432 -192 14 -2 47 -9 74 -15 200 -47 533 -9 706 79 83 43 201 112 240
141 19 14 50 35 68 45 l33 19 27 -35 c15 -19 37 -63 49 -99 11 -35 27 -67 35
-72 19 -13 52 -11 71 4 15 11 17 52 19 422 l3 409 -38 9 c-25 6 -42 6 -49 -1
-5 -5 -23 -61 -38 -124 -32 -125 -64 -202 -116 -279 -19 -28 -34 -58 -34 -65
0 -26 -177 -200 -228 -224 -26 -13 -68 -33 -93 -46 -25 -13 -48 -21 -51 -19
-3 3 -21 -1 -40 -10 -83 -34 -298 -50 -398 -28 -116 24 -234 76 -320 140 -99
72 -225 226 -258 313 -87 225 -105 323 -105 545 1 161 6 245 19 325 21 128 47
251 61 285 8 22 17 49 19 60 2 11 26 65 54 120 170 338 508 481 895 380 355
-92 509 -270 610 -704 13 -57 30 -108 37 -112 20 -13 64 -10 77 5 9 10 11 126
10 432 -2 231 -6 430 -9 444 -5 19 -16 27 -44 34 -34 9 -40 8 -56 -14 -10 -13
-20 -40 -23 -60 -13 -92 -49 -180 -74 -180 -10 1 -49 28 -88 61 -38 33 -96 74
-128 90 -32 16 -71 37 -85 47 -29 21 -177 73 -257 91 -91 21 -99 22 -165 27
-109 8 -213 9 -255 3z"/>
<path d="M4313 4434 c-8 -3 -13 -24 -13 -49 0 -23 6 -47 13 -52 6 -5 48 -14
93 -21 97 -13 149 -36 164 -71 22 -55 28 -256 23 -836 -8 -1000 -15 -1110 -70
-1175 -30 -36 -100 -57 -207 -63 -85 -5 -96 -12 -96 -63 0 -53 15 -58 198 -60
471 -7 1212 -15 1481 -16 274 -1 305 1 316 16 7 9 16 69 21 134 4 64 8 119 9
122 4 13 18 190 31 382 l7 97 -26 6 c-13 4 -38 5 -53 3 -26 -3 -31 -10 -54
-78 -14 -41 -28 -79 -31 -85 -4 -5 -12 -28 -19 -50 -7 -22 -21 -51 -30 -65
-10 -14 -30 -50 -45 -79 -42 -84 -162 -202 -210 -207 -15 -2 -48 -16 -63 -27
-7 -6 -23 -12 -35 -13 -12 -1 -51 -10 -87 -18 -51 -12 -110 -14 -275 -11 -180
3 -218 7 -264 24 -82 31 -105 62 -116 156 -4 33 -9 74 -11 90 -5 42 -5 713 1
754 2 19 9 39 14 44 5 5 95 7 213 5 181 -3 208 -6 250 -25 73 -33 94 -78 104
-223 8 -111 14 -123 62 -114 20 4 38 8 40 9 12 10 19 795 7 814 -9 16 -70 13
-84 -3 -7 -8 -14 -40 -17 -71 -3 -31 -10 -68 -15 -82 -5 -13 -9 -36 -9 -50 0
-31 -59 -93 -90 -93 -12 0 -31 -5 -43 -12 -30 -16 -394 -13 -415 4 -11 10 -13
76 -11 397 3 427 8 507 29 522 10 7 113 8 287 5 237 -5 280 -9 340 -27 67 -21
143 -56 174 -81 41 -34 125 -207 149 -309 18 -77 35 -99 75 -99 60 0 59 -8 30
285 -2 22 -7 83 -11 135 -4 52 -8 106 -9 120 -1 14 -3 35 -4 46 -2 40 -2 40
-666 49 -258 3 -598 8 -755 10 -157 2 -291 2 -297 -1z"/>
<path d="M7860 4409 c-52 -10 -122 -25 -155 -34 -33 -10 -71 -20 -85 -23 -14
-2 -30 -8 -35 -13 -6 -4 -44 -25 -85 -45 -41 -20 -84 -44 -95 -54 -11 -10 -42
-30 -69 -44 -97 -53 -218 -169 -266 -253 -16 -28 -43 -67 -60 -86 -16 -19 -30
-40 -30 -46 0 -6 -11 -34 -25 -61 -14 -27 -25 -54 -25 -61 0 -6 -7 -25 -15
-42 -28 -61 -56 -248 -60 -397 -3 -126 0 -175 19 -300 19 -131 112 -361 189
-467 135 -190 389 -372 609 -438 189 -57 277 -69 508 -69 l215 0 140 38 c430
115 729 383 860 771 72 212 73 488 1 776 -44 177 -117 318 -244 466 -55 66
-207 181 -310 237 -102 55 -274 115 -372 130 -19 3 -68 12 -109 21 -99 21
-369 17 -501 -6z m434 -114 c142 -23 317 -88 377 -141 8 -8 19 -14 23 -14 16
0 98 -93 146 -167 77 -117 124 -248 161 -453 17 -93 21 -156 22 -325 0 -189
-3 -223 -26 -335 -40 -189 -49 -216 -135 -390 -43 -86 -143 -198 -211 -237
-25 -14 -62 -36 -81 -48 -19 -12 -64 -31 -100 -43 -36 -12 -81 -26 -100 -33
-47 -16 -328 -22 -382 -8 -24 5 -68 16 -98 24 -179 43 -246 85 -388 238 -71
77 -134 183 -147 250 -4 18 -16 62 -26 100 -28 96 -50 307 -50 480 0 178 7
238 58 477 62 295 257 514 528 593 91 27 139 37 190 39 28 2 72 4 99 6 27 1
90 -5 140 -13z"/>
<path d="M1432 1609 c-46 -9 -70 -34 -103 -106 -33 -70 -36 -118 -12 -193 16
-50 73 -114 105 -118 83 -12 109 -13 155 -2 29 7 53 17 53 21 0 4 13 4 29 -1
16 -4 32 -6 35 -2 3 3 6 34 6 68 0 64 -13 92 -24 51 -3 -12 -19 -38 -36 -57
-16 -19 -30 -38 -30 -42 0 -3 -16 -12 -36 -18 -29 -10 -45 -9 -88 4 -46 15
-56 23 -75 60 -45 91 -29 206 37 277 23 24 39 31 85 36 48 5 55 8 45 20 -12
15 -83 16 -146 2z"/>
<path d="M1805 1594 c10 -41 18 -278 11 -319 -4 -19 -18 -48 -32 -65 -17 -20
-21 -30 -12 -31 85 -5 318 -4 336 2 19 8 22 15 22 69 0 33 -4 60 -10 60 -5 0
-21 -18 -34 -39 -27 -41 -41 -54 -66 -57 -8 -1 -33 -5 -55 -8 -60 -10 -70 2
-69 82 0 44 6 76 16 90 l15 22 37 -25 c20 -14 41 -25 46 -25 6 0 10 25 10 55
0 30 -2 55 -4 55 -2 0 -22 -10 -44 -21 -58 -31 -72 -22 -72 49 0 32 6 65 13
74 31 40 105 23 142 -32 27 -40 35 -38 35 9 0 34 -4 42 -36 60 -25 15 -40 18
-48 12 -12 -10 -107 -7 -172 5 -37 7 -37 7 -29 -22z"/>
<path d="M2200 1610 c-11 -7 -9 -18 9 -59 19 -45 21 -65 18 -169 -4 -121 -10
-144 -47 -175 -11 -10 -18 -22 -15 -27 7 -11 74 -13 100 -4 14 6 14 8 -1 31
-12 19 -16 47 -15 107 1 111 11 186 25 186 6 0 47 -50 91 -111 102 -141 168
-215 184 -205 7 5 10 24 7 55 -2 26 -1 100 3 165 8 102 11 120 32 142 30 32
36 31 54 -12 l15 -35 30 34 c38 44 84 53 111 23 18 -18 19 -34 18 -146 -3
-150 -10 -184 -40 -209 -13 -11 -21 -22 -18 -26 11 -10 101 -16 142 -9 l38 6
-26 23 c-14 13 -25 34 -26 47 -3 158 4 286 17 306 23 34 79 30 120 -9 35 -34
52 -33 52 6 0 45 -18 50 -207 52 -97 1 -220 2 -274 3 -54 1 -101 0 -104 -3 -3
-3 7 -18 21 -34 34 -36 40 -60 32 -141 -3 -37 -6 -73 -6 -79 -1 -51 -91 37
-197 192 -39 57 -53 70 -77 72 -16 1 -34 4 -41 7 -6 2 -18 0 -25 -4z"/>
<path d="M7532 1565 c-23 -25 -51 -48 -63 -50 -32 -6 -34 -12 -19 -53 19 -53
16 -252 -5 -292 -9 -17 -13 -35 -10 -40 7 -12 105 -13 123 -2 9 7 8 13 -8 27
-15 13 -20 31 -20 67 0 83 22 101 92 73 22 -9 35 19 19 39 -12 14 -57 10 -67
-6 -4 -6 -15 3 -25 19 -20 30 -26 98 -9 108 5 3 16 21 25 39 9 18 22 33 30 33
13 0 12 -3 -1 -18 -15 -17 -15 -19 12 -29 16 -7 47 -20 68 -31 22 -10 41 -18
42 -16 10 10 -19 72 -56 121 -53 70 -73 72 -128 11z"/>
<path d="M1653 1593 c-18 -2 -33 -6 -33 -8 0 -11 24 -55 30 -55 3 0 12 -16 20
-35 15 -39 46 -50 36 -12 -3 12 -6 43 -6 70 0 26 -3 46 -7 45 -5 0 -23 -3 -40
-5z"/>
<path d="M3124 1585 c-4 -9 2 -25 12 -36 16 -18 18 -38 18 -163 -1 -130 -3
-146 -22 -174 -12 -16 -22 -35 -22 -41 0 -12 108 -15 148 -5 23 7 31 24 11 24
-37 0 -55 116 -24 147 14 14 18 13 37 -3 11 -11 38 -45 60 -77 56 -83 122
-117 168 -87 13 8 11 12 -10 27 -35 24 -113 107 -130 138 -13 24 -12 27 28 66
51 48 55 85 17 135 -38 50 -58 57 -177 61 -93 4 -109 2 -114 -12z m221 -49
c43 -65 1 -140 -74 -134 l-36 3 -3 53 c-4 71 15 102 63 102 26 0 39 -6 50 -24z"/>
<path d="M3701 1567 c-24 -12 -61 -44 -82 -70 -58 -72 -62 -126 -17 -219 35
-75 61 -93 164 -117 118 -28 236 33 264 135 14 50 8 166 -9 172 -6 2 -11 9
-11 15 0 17 -48 67 -64 67 -7 0 -23 9 -36 20 -34 29 -149 28 -209 -3z m211
-40 c50 -52 62 -165 30 -262 -19 -56 -43 -72 -120 -84 -39 -5 -54 -2 -89 17
-34 19 -45 32 -58 73 -33 98 -14 200 47 256 28 26 49 31 113 30 42 0 55 -5 77
-30z"/>
<path d="M4266 1572 c-4 -6 5 -21 19 -34 25 -21 25 -23 25 -175 0 -140 -2
-156 -20 -175 -11 -12 -20 -25 -20 -30 0 -8 69 -12 155 -9 132 5 199 34 233
103 56 113 15 246 -94 305 -36 20 -287 32 -298 15z m266 -36 c9 -4 28 -25 43
-46 21 -30 27 -54 32 -112 4 -68 3 -76 -25 -119 -34 -53 -107 -95 -147 -85
-49 12 -57 41 -53 201 3 133 5 148 23 161 20 15 92 15 127 0z"/>
<path d="M4774 1566 c-18 -14 -18 -15 -1 -34 16 -17 18 -37 15 -168 -3 -123
-6 -154 -21 -176 -14 -21 -15 -28 -5 -34 17 -11 276 -14 303 -4 16 6 21 18 23
59 2 28 -1 51 -5 51 -4 0 -17 -14 -28 -30 -25 -39 -58 -55 -116 -59 -58 -3
-69 11 -75 86 -4 48 -1 62 16 82 20 23 21 23 55 7 19 -9 38 -17 42 -16 11 0
10 60 0 60 -5 0 -6 4 -2 9 3 5 1 12 -5 16 -5 3 -10 2 -10 -3 0 -5 -17 -14 -37
-20 -29 -9 -39 -9 -45 1 -12 18 -10 115 3 139 8 15 8 23 0 31 -17 17 -85 18
-107 3z"/>
<path d="M4915 1567 c-27 -15 -16 -27 24 -25 24 1 49 -6 67 -19 56 -38 58 -39
50 -7 -4 16 -15 34 -24 39 -24 14 -99 22 -117 12z"/>
<path d="M5320 1565 c0 -7 7 -30 16 -51 22 -52 13 -294 -12 -332 -9 -13 -12
-28 -7 -33 10 -10 300 -13 326 -3 11 4 16 13 13 21 -3 8 -6 30 -6 49 0 19 -4
34 -9 34 -5 0 -27 -18 -50 -40 -22 -22 -52 -42 -65 -46 -33 -8 -94 13 -100 34
-13 44 -15 113 -4 132 15 24 53 26 74 5 29 -29 44 -18 44 31 0 40 -2 45 -15
34 -8 -7 -15 -10 -15 -6 0 4 -11 -1 -25 -10 -24 -16 -27 -16 -45 1 -15 14 -20
31 -20 69 1 75 16 90 82 81 31 -4 60 -15 71 -26 33 -35 47 -21 25 25 -13 30
-54 41 -120 32 -23 -3 -69 -2 -100 3 -43 6 -58 5 -58 -4z"/>
<path d="M5700 1560 c-12 -8 -11 -14 11 -32 15 -13 52 -53 83 -91 64 -77 70
-105 32 -164 -36 -56 -63 -80 -107 -95 -47 -16 -40 -34 16 -41 52 -5 77 7 70
36 -3 14 6 39 25 70 25 39 35 47 60 47 41 0 85 -64 75 -109 -6 -26 -3 -32 17
-40 34 -12 133 -8 133 6 0 10 -38 56 -137 167 -16 17 -29 35 -29 41 -3 22 4
41 20 60 10 11 22 26 26 34 10 17 -10 7 -42 -21 -19 -18 -24 -18 -49 -6 -39
19 -66 60 -66 102 0 26 -4 36 -16 37 -89 7 -110 7 -122 -1z"/>
<path d="M5995 1538 c3 -13 9 -33 12 -45 5 -22 5 -22 49 7 57 40 51 60 -18 60
-48 0 -50 -1 -43 -22z"/>
<path d="M6308 1548 c-57 -12 -86 -46 -112 -131 -26 -85 -11 -170 42 -230 40
-45 167 -76 195 -48 9 10 7 11 -13 6 -33 -8 -93 18 -119 51 -48 61 -56 169
-19 254 23 54 47 69 117 77 59 6 62 7 40 19 -28 15 -64 16 -131 2z"/>
<path d="M6675 1550 c-4 -6 -1 -26 5 -46 8 -22 11 -84 8 -168 -2 -113 -6 -137
-21 -154 -11 -12 -16 -28 -13 -39 5 -16 19 -18 154 -17 81 0 153 4 160 8 14 9
16 92 2 101 -5 3 -17 -7 -27 -22 -31 -48 -34 -50 -106 -60 -31 -5 -41 -1 -61
20 -20 22 -23 34 -20 82 2 36 9 64 20 76 15 17 19 17 45 4 27 -14 59 -20 59
-11 0 3 -4 16 -10 30 -10 28 -38 34 -58 14 -9 -9 -16 -7 -32 7 -26 23 -29 115
-4 139 23 23 66 20 108 -9 43 -29 71 -33 62 -9 -3 9 -6 19 -6 24 0 14 -53 28
-105 29 -27 0 -73 3 -102 6 -31 3 -54 1 -58 -5z"/>
<path d="M7063 1545 c-13 -10 -12 -16 6 -46 19 -30 21 -48 20 -145 -2 -135 -5
-156 -31 -184 -41 -43 -22 -50 144 -48 171 1 188 7 182 59 -6 51 -14 51 -58 4
-42 -44 -44 -45 -92 -39 -81 9 -84 15 -84 181 0 112 4 151 16 175 9 17 12 34
7 38 -14 13 -94 16 -110 5z"/>
<path d="M7832 1541 l-33 -6 26 -34 c14 -19 25 -40 25 -45 1 -27 17 -38 39
-27 12 7 21 8 21 2 0 -5 6 -16 13 -23 20 -21 121 -151 139 -178 25 -39 85
-100 97 -100 9 0 11 20 9 65 -2 51 -6 66 -20 71 -31 9 -121 105 -197 209 -40
55 -74 73 -119 66z"/>
<path d="M8107 1527 c-3 -8 7 -21 24 -31 16 -9 29 -22 29 -28 0 -6 12 1 27 16
32 32 22 48 -36 53 -26 3 -40 -1 -44 -10z"/>
<path d="M8401 1533 c-63 -12 -129 -99 -137 -183 -5 -53 22 -133 59 -173 36
-40 101 -68 151 -66 29 2 29 2 4 6 -40 6 -116 78 -128 121 -17 62 -12 133 14
187 30 64 52 83 102 89 47 6 121 -25 138 -59 20 -37 46 -46 46 -16 0 41 -20
77 -45 79 -14 1 -25 -4 -25 -11 0 -8 -3 -9 -8 -1 -18 27 -102 40 -171 27z"/>
<path d="M8751 1529 c-22 -9 -22 -11 -9 -27 23 -26 27 -46 30 -177 3 -109 1
-123 -20 -158 -12 -21 -22 -42 -22 -48 0 -5 39 -9 88 -8 56 0 80 3 67 9 -41
16 -47 35 -50 167 -4 129 5 205 24 211 12 4 15 32 4 33 -59 6 -92 6 -112 -2z"/>
<path d="M6492 1522 c-23 -7 -23 -7 6 -24 16 -10 35 -31 42 -48 7 -16 17 -30
23 -30 16 0 0 83 -19 97 -19 14 -18 14 -52 5z"/>
<path d="M9102 1498 c-7 -7 -12 -28 -12 -47 0 -20 -7 -45 -15 -55 -22 -29 -18
-42 5 -21 42 38 99 -30 70 -84 -9 -17 -6 -23 14 -36 30 -20 49 -64 44 -107
l-3 -33 53 -3 c46 -3 52 -1 52 17 0 11 -4 23 -10 26 -10 6 -43 74 -65 136 -7
20 -25 62 -39 93 -14 31 -26 61 -26 67 0 17 -32 59 -44 59 -7 0 -17 -5 -24
-12z"/>
<path d="M9033 1304 c-3 -10 -11 -22 -16 -25 -6 -4 -7 -14 -4 -23 11 -27 46
-2 42 29 -3 34 -13 42 -22 19z"/>
<path d="M6533 1233 c-26 -40 -59 -73 -72 -73 -6 0 -11 -5 -11 -11 0 -7 7 -8
18 -4 9 4 35 12 58 18 40 9 41 11 43 53 1 50 -11 56 -36 17z"/>
<path d="M8592 1193 c-33 -51 -28 -62 23 -49 18 5 26 15 31 40 6 34 0 56 -15
56 -4 0 -21 -21 -39 -47z"/>
<path d="M7730 1201 c0 -5 -24 -24 -52 -42 -52 -33 -53 -34 -24 -37 17 -2 50
-1 74 3 33 5 42 10 38 22 -3 8 -6 26 -6 39 0 15 -6 24 -15 24 -8 0 -15 -4 -15
-9z"/>
<path d="M8960 1167 c-19 -21 -35 -41 -35 -45 0 -10 62 -20 75 -12 9 6 10 20
4 52 l-9 44 -35 -39z"/>
<path d="M7823 1165 c-18 -11 -32 -23 -33 -27 0 -12 43 -20 85 -16 l38 3 -29
30 -29 31 -32 -21z"/>
<path d="M2334 949 c-2 -4 4 -21 12 -39 14 -26 16 -58 12 -182 -4 -138 -6
-152 -25 -168 -37 -30 -14 -40 93 -42 194 -2 225 -1 236 10 12 12 12 98 1 115
-3 5 -24 -12 -47 -38 -41 -47 -87 -66 -142 -57 -61 9 -56 172 5 172 10 0 30
-9 44 -20 14 -11 27 -20 30 -20 3 0 5 29 6 65 0 66 -10 81 -29 45 -12 -23 -59
-27 -78 -8 -7 7 -12 32 -12 55 0 98 64 123 138 55 47 -43 67 -39 50 12 -6 17
-13 33 -15 36 -7 8 -274 16 -279 9z"/>
<path d="M2718 945 c-3 -3 4 -17 17 -30 18 -20 23 -41 28 -107 9 -133 1 -187
-34 -231 -43 -53 -34 -72 33 -64 28 4 53 9 56 12 3 2 -3 22 -12 43 -20 44 -20
179 0 206 12 18 14 16 95 -161 24 -51 49 -93 56 -93 7 0 34 44 61 98 50 102
89 162 105 162 6 0 8 -41 5 -100 -4 -85 -8 -104 -26 -123 -12 -13 -22 -29 -22
-35 0 -10 25 -17 51 -14 3 1 29 2 57 3 l51 3 -18 30 c-15 25 -19 53 -20 141
-2 133 10 203 38 226 20 16 20 17 -11 23 -67 13 -82 8 -110 -38 -16 -24 -28
-49 -28 -57 -1 -8 -14 -39 -30 -69 -17 -30 -30 -63 -30 -72 0 -22 -27 -48 -49
-48 -12 0 -26 18 -41 53 -89 198 -110 237 -127 237 -10 1 -34 3 -53 6 -20 3
-38 2 -42 -1z"/>
<path d="M3686 942 c-22 -2 -49 -10 -60 -18 -11 -8 -32 -14 -46 -14 -68 0
-124 -141 -98 -245 26 -103 138 -173 257 -162 95 10 137 34 177 102 49 85 31
206 -41 274 -41 38 -130 68 -189 63z m79 -38 c62 -24 95 -83 95 -170 0 -72
-12 -104 -58 -156 l-46 -51 -65 7 c-100 9 -129 48 -133 177 -3 84 25 143 84
182 43 28 73 31 123 11z"/>
<path d="M4041 931 c-11 -7 -12 -17 -3 -53 21 -84 -1 -360 -27 -343 -4 2 -8
-5 -8 -16 -2 -20 13 -23 82 -19 59 3 65 8 49 38 -17 33 -18 112 -2 147 11 24
43 35 50 16 2 -5 14 -12 29 -16 23 -6 25 -4 27 33 3 51 -17 70 -43 42 -10 -11
-24 -20 -31 -20 -24 0 -45 45 -40 86 2 22 5 42 5 46 2 17 45 46 60 41 49 -16
84 -37 103 -64 29 -38 47 -37 90 9 37 39 74 50 109 31 18 -9 20 -21 18 -163
-1 -134 -3 -158 -21 -186 -24 -40 -14 -50 52 -50 69 0 82 14 54 55 -22 30 -20
297 2 330 24 37 85 32 124 -8 34 -35 45 -31 35 11 -4 21 -14 32 -33 38 -15 4
-163 8 -329 10 -166 1 -310 5 -320 8 -10 3 -24 2 -32 -3z"/>
<path d="M5245 910 c-4 -6 1 -20 10 -30 13 -15 18 -47 22 -157 l6 -138 -42
-38 c-42 -38 -43 -38 -63 -20 -20 18 -70 111 -83 155 -4 12 -29 70 -56 127
l-49 104 -19 -24 c-23 -30 -51 -84 -51 -99 0 -6 -11 -35 -24 -63 -13 -29 -34
-74 -46 -102 -12 -27 -33 -65 -47 -83 -28 -37 -23 -52 15 -52 43 0 54 13 47
52 -12 65 35 120 95 111 60 -10 80 -21 97 -58 14 -29 15 -40 5 -55 -29 -46
-21 -49 125 -49 76 0 141 3 146 6 4 2 -1 19 -12 37 -29 46 -32 191 -5 210 16
12 21 7 55 -63 21 -42 47 -97 58 -123 31 -74 47 -65 112 65 42 83 61 112 75
112 17 0 19 -8 18 -83 -1 -68 -6 -89 -23 -113 -26 -34 -26 -46 -3 -53 22 -6
92 -1 113 8 15 6 15 10 -2 43 -16 31 -18 55 -14 175 3 126 5 142 25 162 29 32
8 49 -46 38 -41 -8 -79 -51 -90 -101 -3 -14 -17 -49 -30 -77 -13 -28 -24 -56
-24 -62 0 -6 -5 -22 -11 -35 -10 -22 -14 -23 -39 -14 -20 8 -35 27 -55 71 -14
34 -35 80 -46 103 -10 24 -19 46 -19 51 0 4 -10 21 -22 38 -17 22 -33 30 -59
32 -21 2 -40 -2 -44 -8z m-245 -170 c12 -37 12 -42 -6 -55 -47 -35 -84 -4 -63
53 10 26 39 53 50 47 3 -2 12 -22 19 -45z"/>
<path d="M5970 905 c-41 -10 -63 -23 -91 -53 -75 -80 -77 -188 -7 -296 22 -34
34 -42 75 -51 10 -2 29 -8 43 -13 72 -27 187 3 244 64 65 71 55 236 -18 297
-66 55 -155 74 -246 52z m117 -21 c60 -12 92 -54 114 -152 11 -49 -9 -142 -36
-169 -8 -8 -21 -24 -30 -36 -13 -18 -25 -21 -82 -22 -65 0 -69 1 -99 35 -48
54 -58 79 -57 151 1 140 75 216 190 193z"/>
<path d="M6356 894 c-3 -8 -2 -14 3 -14 23 0 33 -65 29 -193 -3 -117 -6 -137
-27 -170 l-23 -37 160 0 c116 0 162 3 170 13 13 15 20 97 9 97 -5 0 -26 -18
-48 -40 -22 -22 -43 -40 -47 -41 -4 0 -25 -3 -48 -5 -69 -8 -77 11 -81 174 -3
122 -1 141 17 176 24 49 17 56 -57 54 -34 0 -54 -5 -57 -14z"/>
<path d="M6905 903 c-38 -5 -85 -23 -85 -34 0 -4 -8 -10 -17 -13 -27 -9 -65
-71 -74 -123 -13 -70 13 -153 62 -197 94 -86 264 -77 344 17 19 22 35 45 35
51 0 6 6 23 14 37 12 23 11 34 -8 93 -26 83 -62 128 -115 146 -22 7 -41 17
-41 21 0 7 -58 8 -115 2z m160 -70 c54 -74 46 -238 -16 -304 -26 -28 -54 -35
-126 -32 -42 3 -99 51 -113 96 -41 136 16 272 121 289 32 5 117 -26 134 -49z"/>
<path d="M7361 887 c-78 -41 -123 -118 -124 -212 -1 -53 4 -67 31 -107 45 -65
89 -90 172 -96 51 -3 81 0 119 14 46 16 52 22 62 59 6 22 18 52 25 68 14 26
13 28 -11 37 -15 6 -46 10 -70 10 -40 0 -43 -2 -40 -22 3 -12 9 -26 15 -32 13
-13 13 -56 0 -56 -5 0 -10 -7 -10 -15 0 -15 -48 -45 -72 -45 -7 0 -33 10 -58
23 -61 30 -85 78 -84 172 0 51 6 81 21 111 28 53 44 65 99 75 37 7 53 5 88
-12 24 -11 49 -31 56 -44 22 -41 40 -39 40 4 0 33 -4 40 -27 49 -108 41 -179
47 -232 19z"/>
<path d="M7730 891 c0 -3 9 -19 20 -36 18 -27 20 -46 19 -171 0 -119 -3 -146
-19 -172 -10 -16 -16 -33 -13 -36 4 -3 33 -6 65 -6 64 0 83 16 54 45 -11 12
-16 36 -17 83 -2 166 1 236 11 246 25 25 11 44 -37 50 -56 6 -83 5 -83 -3z"/>
<path d="M8119 863 c-19 -5 -42 -67 -34 -92 4 -13 -3 -28 -20 -45 -14 -14 -25
-33 -25 -43 0 -10 -12 -36 -25 -58 -14 -22 -25 -47 -25 -56 0 -27 -52 -79 -79
-79 -40 0 -14 -13 39 -20 47 -6 51 -5 56 17 4 13 4 37 0 54 -5 24 -1 35 21 55
14 13 32 24 39 24 17 0 23 21 12 43 -13 26 -3 59 23 76 20 12 24 11 37 -5 9
-12 12 -34 9 -62 -4 -38 -1 -45 24 -62 32 -24 43 -49 43 -105 l1 -40 50 1 c40
0 51 4 53 18 2 10 -3 25 -11 34 -8 9 -38 71 -66 137 -81 188 -94 215 -100 214
-3 -1 -13 -3 -22 -6z"/>
</g>
</svg>
